<?xml version="1.0" encoding="UTF-8"?>
<svg xmlns="http://www.w3.org/2000/svg" id="Layer_1" data-name="Layer 1" viewBox="0 0 24 24">
  <path d="M23.993,17.275l-1.864-11.186c-.202-1.211-1.239-2.089-2.466-2.089H4.337c-1.227,0-2.264,.878-2.466,2.089L.007,17.275l-.007,2.725H24l-.007-2.725Zm-.993,1.725H1v-1.602L2.857,6.253c.121-.726,.743-1.253,1.479-1.253h15.326c.736,0,1.358,.527,1.479,1.253l1.857,11.104v1.643Zm-7.25-10c-1.156,0-2.111,.876-2.236,2h-3.027c-.125-1.124-1.08-2-2.236-2-1.241,0-2.25,1.009-2.25,2.25,0,.452,.133,.883,.38,1.25-.247,.367-.38,.798-.38,1.25,0,1.24,1.009,2.25,2.25,2.25,1.156,0,2.111-.877,2.236-2h3.027c.125,1.123,1.08,2,2.236,2,1.241,0,2.25-1.01,2.25-2.25,0-.452-.133-.883-.38-1.25,.247-.367,.38-.798,.38-1.25,0-1.241-1.009-2.25-2.25-2.25Zm.873,3.857c.243,.238,.377,.556,.377,.893,0,.689-.561,1.25-1.25,1.25s-1.25-.561-1.25-1.25c.003-.112,.091-.626,.106-.75h-5.209c.014,.118,.101,.639,.104,.75,0,.689-.561,1.25-1.25,1.25s-1.25-.561-1.25-1.25c-.031-.521,.386-.926,.743-1.25-.357-.324-.773-.728-.743-1.25,0-.689,.561-1.25,1.25-1.25s1.25,.561,1.25,1.25c-.003,.111-.091,.627-.105,.75h5.208c-.014-.117-.1-.641-.103-.75,0-.689,.561-1.25,1.25-1.25s1.25,.561,1.25,1.25c.031,.522-.386,.926-.743,1.25l.365,.357Z"/>
</svg>
