<?xml version="1.0" encoding="UTF-8"?>
<svg xmlns="http://www.w3.org/2000/svg" id="Layer_1" data-name="Layer 1" viewBox="0 0 24 24">
  <path d="m17,2.5v1.5h7v1h-7v3h7v1h-7v3h7v1h-7v3h7v1h-7v7h-1V2.5c0-1.379,1.121-2.5,2.5-2.5h5.5v1h-5.5c-.827,0-1.5.673-1.5,1.5Zm-4,18c0,1.93-1.57,3.5-3.5,3.5-1.272,0-2.387-.682-3-1.699-.613,1.017-1.728,1.699-3,1.699-1.93,0-3.5-1.57-3.5-3.5,0-1.814,1.388-3.311,3.158-3.483l2.802-6.828-1.741-4.242c-.808-1.886-1.219-3.889-1.219-5.947h1c0,1.922.384,3.793,1.142,5.561l1.359,3.311,1.355-3.303c.761-1.775,1.145-3.646,1.145-5.568h1c0,2.059-.411,4.062-1.222,5.955l-1.737,4.234,2.802,6.828c1.77.173,3.158,1.669,3.158,3.483Zm-6.5-8.993l-2.284,5.567c.967.202,1.79.804,2.284,1.625.495-.821,1.317-1.424,2.284-1.625l-2.284-5.567Zm-.5,8.993c0-1.379-1.121-2.5-2.5-2.5s-2.5,1.121-2.5,2.5,1.121,2.5,2.5,2.5,2.5-1.121,2.5-2.5Zm6,0c0-1.379-1.121-2.5-2.5-2.5s-2.5,1.121-2.5,2.5,1.121,2.5,2.5,2.5,2.5-1.121,2.5-2.5Z"/>
</svg>
