<svg id="Layer_1" viewBox="0 0 24 24" xmlns="http://www.w3.org/2000/svg" data-name="Layer 1"><path d="m9.501 15.5h3.5v1h-3.5v3.5h-1v-3.5h-3.5v-1h3.5v-3.5h1zm13.54 3.096-4.444 4.444c-.639.639-1.479.958-2.318.958s-1.679-.319-2.317-.958c-1.278-1.278-1.278-3.358 0-4.636l4.444-4.444c1.276-1.276 3.357-1.278 4.636 0 1.278 1.278 1.278 3.358 0 4.636zm-3.222 1.807-3.222-3.222-1.93 1.93c-.431.43-.667 1.002-.667 1.611s.236 1.181.667 1.611c.89.888 2.334.887 3.222 0zm3.182-4.125c0-.608-.236-1.181-.667-1.611-.444-.444-1.027-.666-1.61-.666s-1.167.222-1.611.666l-1.807 1.807 3.222 3.222 1.807-1.807c.431-.43.667-1.002.667-1.611zm-11.464 6.722c.171.356.385.688.636 1h-12.173v-13.5c0-1.378 1.122-2.5 2.501-2.5h2.5v-3h-2v-2.5c0-1.378 1.122-2.5 2.5-2.5h7c1.379 0 2.5 1.122 2.5 2.5v2.5h-2.034l.029 3h2.505c1.379 0 2.5 1.122 2.5 2.5v1.274c-.354.214-.694.459-1 .764v-2.038c0-.827-.673-1.5-1.5-1.5h-3.495l-.039-4h-5.966v4h-3.5c-.827 0-1.5.673-1.5 1.5v12.5h10.537zm-7.536-19h10v-1.5c0-.827-.673-1.5-1.5-1.5h-7c-.827 0-1.5.673-1.5 1.5z"/></svg>