<?xml version="1.0" encoding="UTF-8"?>
<svg xmlns="http://www.w3.org/2000/svg" id="Layer_1" data-name="Layer 1" viewBox="0 0 24 24">
  <path d="M9,9.792c0,.437-.534,1.208-1.5,1.208s-1.5-.771-1.5-1.208,.534-.792,1.5-.792,1.5,.354,1.5,.792Zm7.5,10.208c.966,0,1.5-.771,1.5-1.208s-.534-.792-1.5-.792-1.5,.354-1.5,.792,.534,1.208,1.5,1.208ZM7.851,15h-.701c-3.456,0-7.149-1.289-7.149-4.907,0-.642,.409-1.562,1.18-2.36-.766-.36-1.18-1.078-1.18-2.1C0,4.043,2.454,0,4,0c.938,0,1.411,.462,1.827,.871,.104,.102,.222,.204,.341,.305,.408-.112,.85-.175,1.332-.175s.92,.062,1.326,.173c.101-.091,.204-.184,.294-.272,.426-.422,.908-.901,1.88-.901,1.546,0,4,4.043,4,5.633,0,.997-.397,1.702-1.128,2.07,.771,.782,1.128,1.689,1.128,2.389,0,3.618-3.693,4.907-7.149,4.907ZM9.843,1.592c2.035,1.14,2.909,3.677,3.122,5.351,.699-.127,1.035-.528,1.035-1.309,0-1.324-2.291-4.633-3-4.633-.55,0-.785,.224-1.157,.592ZM1,5.633c0,.783,.337,1.184,1.038,1.31,.218-1.678,1.089-4.201,3.106-5.343-.005-.005-.012-.01-.018-.016-.372-.365-.597-.585-1.127-.585-.709,0-3,3.309-3,4.633Zm13,4.459c0-.558-.465-1.65-1.747-2.375l-.228-.129-.023-.262c-.02-.217-.518-5.326-4.502-5.326S3.018,7.132,2.998,7.351l-.022,.25-.214,.132c-1.202,.738-1.762,1.844-1.762,2.359,0,3.625,4.707,3.907,6.149,3.907h.701c1.442,0,6.149-.282,6.149-3.907Zm9.404,.71l-.414-2.276-2.938,2.01h0c-.933-.54-1.957-.854-3.044-.933l-.072,.997c.935,.068,1.814,.337,2.615,.801l.545,.316,2.186-1.496,.138,.759c.005,.032,.579,3.223,.579,6.375,0,3.111-2.531,5.643-5.643,5.643h-1.714c-3.165,0-5.643-2.416-5.643-5.5v-.5h-1v.5c0,3.645,2.918,6.5,6.643,6.5h1.714c3.663,0,6.643-2.979,6.643-6.643,0-3.278-.591-6.529-.596-6.554ZM6.5,7c0-.552-.448-1-1-1s-1,.448-1,1,.448,1,1,1,1-.448,1-1Zm3-1c-.552,0-1,.448-1,1s.448,1,1,1,1-.448,1-1-.448-1-1-1Zm4.5,9c-.552,0-1,.448-1,1s.448,1,1,1,1-.448,1-1-.448-1-1-1Zm6,1c0-.552-.448-1-1-1s-1,.448-1,1,.448,1,1,1,1-.448,1-1Z"/>
</svg>
