<?xml version="1.0" encoding="UTF-8" standalone="no"?>
<!DOCTYPE svg PUBLIC "-//W3C//DTD SVG 1.1//EN" "http://www.w3.org/Graphics/SVG/1.1/DTD/svg11.dtd">
<svg width="100%" height="100%" viewBox="0 0 670 352" version="1.1" xmlns="http://www.w3.org/2000/svg" xmlns:xlink="http://www.w3.org/1999/xlink" xml:space="preserve" style="fill-rule:evenodd;clip-rule:evenodd;stroke-linejoin:round;stroke-miterlimit:1.41421;">
    <g>
        <path d="M268.52,11.244C270.463,19.092 259.016,22.62 264.056,29.676C255.704,42.275 239.936,51.564 230,63.732C205.448,84.036 175.856,95.269 155.983,123.852C111.992,171.947 84.487,224.076 40.136,270.66C28.327,272.892 16.591,266.915 7.591,258.996C-8.752,226.595 8.383,191.315 15.295,159.924L57.344,55.523L57.416,44.076L60.08,46.884C60.944,46.092 61.664,44.868 62.887,45.3L65.624,48.468C66.416,42.564 71.887,49.332 74.263,51.275C86.72,69.852 80.24,98.147 73.832,117.804C67.783,137.82 62.528,157.836 54.896,177.061L56.48,178.644C68.359,169.284 74.408,149.699 86.216,144.588L104.863,120.756L106.448,122.34C114.368,111.756 125.096,101.964 129.056,89.796C137.839,76.908 149.647,71.436 159.224,60.132C158.432,59.699 157.64,58.548 156.416,58.908C171.824,51.564 187.735,28.812 209.047,17.939C221.647,12.54 235.472,5.916 247.279,2.82C250.879,-3.804 259.087,6.061 264.272,2.964L268.52,11.244Z" style="fill-rule:nonzero;"/>
        <path d="M640.832,47.964C641.624,45.947 643.208,46.38 644.792,46.38C645.943,49.188 648.319,51.564 650.624,53.508L651.847,52.356C657.679,57.107 664.735,61.068 669.056,66.611C666.103,100.812 647.815,129.036 633.056,158.484C625.496,170.58 615.992,174.107 605.695,182.315L604.543,183.468C594.752,172.019 605.12,148.836 604.904,131.124C614.12,101.676 619.448,70.644 637.735,45.156L640.832,47.964Z" style="fill-rule:nonzero;"/>
        <path d="M231.007,93.252C232.952,92.46 232.591,90.876 232.591,88.932L236.912,93.252L239.647,90.516C239.647,90.156 244.328,96.061 246.704,99.228C251.312,113.052 233.24,113.699 225.319,118.739C218.264,118.309 210.775,115.14 206.888,110.027C206.527,102.107 212.863,97.068 215.671,90.372C219.992,92.748 220.352,89.651 223.879,94.764L227.047,88.86C229.064,90.084 227.839,93.972 231.007,93.252Z" style="fill:rgb(236,28,36);fill-rule:nonzero;"/>
        <path d="M320.144,115.068C324.248,136.739 307.688,153.156 304.448,173.172C305.96,178.716 300.848,183.396 302.792,187.356C329.215,159.204 355.135,110.603 398.047,112.836C400.352,114.061 401.503,117.947 400.711,121.477C399.847,128.603 391.279,124.572 392.431,129.685C383.36,129.252 381.343,138.323 373.856,139.477C344.12,173.893 319.927,211.115 289.832,243.947C281.12,244.308 274.135,238.332 269.815,232.427C262.976,193.404 287.6,164.46 293.288,129.036C288.319,116.436 279.967,129.396 273.272,128.964C248.288,154.38 219.343,185.268 199.111,216.227C186.08,223.572 180.032,238.476 163.543,234.443C156.127,226.523 140,222.851 142.448,208.739C147.416,176.484 169.591,149.916 194.144,127.235C202.423,128.82 211.496,126.588 209.408,138.323C205.808,155.676 196.231,170.508 189.463,186.635L193.784,186.635C226.184,162.443 247.711,121.26 286.376,112.115C296.6,106.644 312.799,103.62 320.144,115.068Z" style="fill-rule:nonzero;"/>
        <path d="M503.599,211.115L500.864,208.379C505.688,193.404 508.135,177.276 515.335,163.164L512.671,149.052C505.688,135.947 496.976,147.756 487.111,146.101C465.656,116.436 424.976,144.516 400.496,159.708C387.032,172.596 367.231,188.219 369.032,211.835C372.488,221.268 382.711,226.452 390.127,231.635C427.496,242.507 441.104,199.308 468.392,186.851C468.679,195.131 466.664,208.091 470.912,216.803C475.952,228.251 488.12,235.019 499.135,238.259C515.624,243.875 522.032,225.803 534.631,218.387C538.664,204.707 552.919,197.291 557.671,184.763C540.319,194.843 523.328,206.147 503.599,211.115ZM408.847,202.259C405.679,202.98 402.584,200.604 401.792,199.452L400.208,197.868C414.896,177.852 436.568,170.147 457.087,162.804C443.624,176.124 426.631,193.332 408.847,202.259Z" style="fill-rule:nonzero;"/>
        <path d="M600.08,199.452C600.943,193.547 605.624,200.244 608.359,200.675C612.679,201.467 609.152,197.507 611.527,197.939C615.775,203.484 623.624,211.763 618.439,220.763C607.784,225.875 603.032,231.347 591.295,224.939C585.392,218.244 579.56,211.476 579.992,202.043C585.967,194.988 592.664,197.795 600.08,199.452Z" style="fill:rgb(236,28,36);fill-rule:nonzero;"/>
        <path d="M129.671,285.596C129.374,286.146 128.718,286.484 127.703,286.611C127.617,286.611 126.708,286.655 124.973,286.737C125.269,288.643 126.369,291.014 128.274,293.849C129.374,294.653 129.925,295.712 129.925,297.024C129.925,299.097 128.654,300.134 126.115,300.134C123.702,300.134 122.052,299.52 121.163,298.293C120.866,297.871 120.676,297.299 120.591,296.579C120.591,296.114 120.569,295.627 120.528,295.12C120.148,294.738 119.004,292.284 117.101,287.755C113.629,288.262 109.355,288.983 104.275,289.913C103.768,291.141 103.217,292.918 102.625,295.246C102.709,295.67 102.752,296.072 102.752,296.453C102.752,297.596 102.372,298.475 101.609,299.087C100.848,299.7 99.937,300.007 98.879,300.007C97.693,300.007 96.594,299.562 95.578,298.674C94.562,297.785 94.055,296.748 94.055,295.564C94.055,294.505 94.54,293.553 95.515,292.707C98.689,276.582 102.54,263.248 107.069,252.709C106.984,252.202 106.942,251.693 106.942,251.185C106.942,249.069 107.661,247.672 109.101,246.996C109.693,246.743 110.455,246.615 111.386,246.615C113.164,246.615 114.645,246.89 115.83,247.44C117.354,248.202 118.116,249.344 118.116,250.868C118.116,252.264 117.735,253.513 116.974,254.613C117.776,261.809 119.513,270.105 122.179,279.501C122.433,279.459 123.3,279.248 124.782,278.866C125.671,278.613 126.347,278.485 126.814,278.485C127.363,278.485 127.808,278.613 128.147,278.866C129.628,280.007 130.369,281.405 130.369,283.056C130.369,283.944 130.136,284.792 129.671,285.596ZM114.434,280.77C113.714,278.104 112.571,272.984 111.005,265.407C108,271.968 106.222,277.595 105.673,282.295L114.434,280.77Z" style="fill-rule:nonzero;"/>
        <path d="M163.318,293.595C163.36,293.892 163.382,294.189 163.382,294.484C163.382,297.024 161.964,298.737 159.128,299.625C158.578,299.794 158.091,299.88 157.668,299.88C156.906,299.88 156.208,299.52 155.574,298.802C154.599,297.743 154.007,297.15 153.796,297.024L142.368,289.025L142.368,294.358C142.368,294.738 142.484,295.214 142.717,295.786C142.949,296.357 143.066,296.791 143.066,297.087C143.066,297.554 142.833,298.04 142.368,298.547C141.309,299.647 139.785,300.197 137.797,300.197C135.892,300.197 134.664,299.562 134.115,298.293C133.861,297.702 133.775,297.087 133.861,296.453C134.029,295.352 134.115,294.611 134.115,294.23L134.115,252.456C134.072,251.693 134.156,250.552 134.369,249.027C134.749,248.096 135.913,247.629 137.86,247.629C140.399,247.629 142.028,248.096 142.748,249.027C143.129,249.535 143.32,250.084 143.32,250.676C143.32,251.143 143.162,251.864 142.844,252.836C142.526,253.809 142.368,254.572 142.368,255.122C142.283,257.577 142.283,264.497 142.368,275.882C144.737,273.596 147.784,270.613 151.51,266.93C152.018,266.423 152.673,265.513 153.479,264.201C153.943,263.439 154.642,262.93 155.574,262.676C155.827,262.593 156.122,262.549 156.462,262.549C157.689,262.549 158.948,263.015 160.239,263.947C161.529,264.877 162.176,265.873 162.176,266.93C162.176,267.524 161.752,268.244 160.905,269.089C160.059,269.937 159.212,270.741 158.367,271.501L147.827,282.421L159.128,290.548C159.212,290.633 160.059,290.971 161.668,291.564C162.598,291.945 163.149,292.623 163.318,293.595Z" style="fill-rule:nonzero;"/>
        <path d="M188.966,288.007C188.923,288.94 188.522,289.892 187.76,290.866C186.575,292.262 185.813,293.321 185.474,294.04C182.808,298.102 180.057,300.134 177.222,300.134C173.878,300.134 171.274,298.441 169.412,295.055C167.761,291.966 166.937,288.071 166.937,283.373C166.937,278 167.952,273.321 169.984,269.343C172.227,264.942 175.127,262.741 178.682,262.741C181.475,262.741 183.739,264.286 185.474,267.374C186.913,270 187.633,272.857 187.633,275.946C187.633,276.791 187.569,277.533 187.443,278.168C187.146,279.608 185.94,280.327 183.824,280.327C182.174,280.327 180.903,279.86 180.015,278.928C179.591,278.464 179.38,277.385 179.38,275.692C179.38,275.269 179.4,274.656 179.443,273.851C179.443,273.005 179.443,272.391 179.443,272.009C179.443,270.105 179.104,269.153 178.428,269.153C177.708,269.153 176.946,271.238 176.142,275.406C175.338,279.575 174.936,283.48 174.936,287.12C174.936,291.352 175.571,293.468 176.84,293.468C178.491,293.468 179.718,292.135 180.523,289.469C180.86,289.088 181.051,288.326 181.094,287.183C181.094,286.166 181.348,285.5 181.856,285.183C182.363,284.865 183.104,284.707 184.078,284.707C185.348,284.707 186.448,284.981 187.379,285.531C188.48,286.166 189.008,286.993 188.966,288.007Z" style="fill-rule:nonzero;"/>
        <path d="M202.425,273.469C202.425,286.633 202.446,291.163 202.488,287.056C202.403,293.405 201.853,298.314 200.837,301.785C199.482,306.483 197.303,309.023 194.298,309.403C192.986,309.572 191.547,309.287 189.981,308.546C188.416,307.805 187.632,306.947 187.632,305.975C187.632,305.636 187.759,305.298 188.013,304.958C188.479,304.365 189.251,304.155 190.33,304.324C191.41,304.492 192.139,304.451 192.521,304.199C193.875,303.264 194.552,295.627 194.552,281.278C194.552,277.935 194.51,273.914 194.425,269.216C194.425,268.835 194.298,268.168 194.044,267.217C193.79,266.263 193.663,265.555 193.663,265.09C193.663,263.607 194.847,262.868 197.219,262.868C199.251,262.868 200.731,263.334 201.662,264.263C202.425,265.026 202.805,266.127 202.805,267.566C202.805,268.244 202.741,269.228 202.615,270.518C202.488,271.809 202.425,272.793 202.425,273.469ZM202.425,260.454C202.128,261.132 201.302,261.47 199.948,261.47C198.974,261.47 198.043,261.259 197.155,260.834C196.013,260.329 195.441,259.652 195.441,258.804C195.441,258.55 195.504,258.192 195.631,257.725C195.759,257.258 195.822,256.942 195.822,256.773C195.822,256.519 195.779,256.053 195.695,255.375C195.609,254.699 195.568,254.191 195.568,253.851C195.568,252.878 195.822,252.16 196.329,251.693C197.006,251.016 197.896,250.676 198.996,250.676C199.885,250.676 200.731,250.954 201.536,251.503C202.339,252.053 202.741,252.772 202.741,253.662C202.741,254.042 202.615,254.657 202.361,255.503C202.107,256.35 202.001,256.986 202.043,257.406C202.001,257.746 202.085,258.138 202.297,258.582C202.509,259.027 202.615,259.374 202.615,259.629C202.615,259.882 202.552,260.16 202.425,260.454Z" style="fill-rule:nonzero;"/>
        <path d="M236.008,295.88C235.373,297.954 233.806,298.991 231.31,298.991C230.462,298.991 229.786,298.843 229.278,298.547C228.6,298.081 228.136,297.15 227.882,295.754C227.373,293.341 226.865,291.458 226.358,290.103C226.231,292.432 224.961,294.792 222.548,297.182C220.136,299.572 217.702,300.769 215.248,300.769C212.158,300.769 210.02,298.716 208.836,294.611C208.412,293.087 208.201,291.649 208.201,290.294C208.201,286.356 210.21,282.993 214.231,280.199C217.533,278.251 220.855,276.327 224.199,274.423C224.368,273.703 224.453,273.005 224.453,272.327C224.453,271.016 224.093,270.244 223.374,270.009C222.654,269.778 222.04,269.661 221.533,269.661C220.644,269.661 219.914,269.946 219.343,270.518C218.771,271.089 218.231,271.629 217.724,272.136C217.215,272.476 216.559,273.258 215.755,274.486C215.121,275.459 214.422,275.989 213.661,276.073C212.559,276.201 211.565,275.819 210.676,274.931C209.788,274.041 209.343,273.005 209.343,271.819C209.343,271.143 209.512,270.529 209.852,269.979C210.824,268.371 212.284,266.973 214.231,265.789C217.193,264.009 220.897,263.122 225.341,263.122C228.178,263.122 230.124,264.476 231.183,267.184C231.859,269.004 232.367,272.413 232.707,277.407C233.088,283.459 233.552,287.882 234.103,290.675C234.188,291.225 234.548,291.924 235.182,292.771C235.817,293.617 236.135,294.358 236.135,294.992C236.135,295.289 236.092,295.585 236.008,295.88ZM224.961,280.261C223.69,280.941 222.432,281.639 221.183,282.358C219.935,283.078 218.78,284.03 217.724,285.215C216.2,286.951 215.437,288.432 215.437,289.659C215.437,290.675 215.818,291.733 216.581,292.833C217.004,293.426 217.469,293.722 217.978,293.722C219.077,293.722 220.273,292.496 221.564,290.04C222.855,287.586 223.986,284.325 224.961,280.261Z" style="fill-rule:nonzero;"/>
        <path d="M277.908,298.166C277.401,299.31 275.835,299.88 273.21,299.88C271.56,299.88 270.459,299.54 269.909,298.865C269.696,298.652 269.591,298.355 269.591,297.974C269.591,297.68 269.696,297.214 269.909,296.579C270.12,295.945 270.247,295.458 270.29,295.12C268.342,297.871 266.058,299.246 263.433,299.246C259.919,299.246 257.359,297.256 255.752,293.278C254.523,290.231 253.91,286.273 253.91,281.405C253.91,276.919 254.862,272.835 256.767,269.153C258.883,265.132 261.486,263.122 264.576,263.122C266.311,263.122 268.088,264.517 269.909,267.311L269.909,259.121C269.909,258.446 269.633,257.577 269.084,256.519C268.533,255.461 268.258,254.657 268.258,254.105C268.258,253.684 268.363,253.259 268.576,252.836C269.464,250.931 271.199,249.979 273.782,249.979C275.898,249.979 277.21,250.741 277.718,252.264C277.886,252.772 277.972,253.259 277.972,253.725C277.972,254.191 277.834,254.815 277.559,255.598C277.283,256.382 277.147,257.048 277.147,257.598L277.147,293.786C277.147,294.252 277.315,294.813 277.654,295.468C277.993,296.124 278.162,296.665 278.162,297.087C278.162,297.427 278.077,297.785 277.908,298.166ZM269.147,281.405C269.147,279.459 268.745,277.172 267.94,274.549C267.052,271.755 266.185,270.359 265.338,270.359C264.364,270.359 263.581,271.651 262.988,274.232C262.523,276.347 262.291,278.74 262.291,281.405C262.291,281.872 262.269,282.634 262.227,283.69C262.227,284.707 262.227,285.49 262.227,286.04C262.227,290.825 263.263,293.214 265.338,293.214C266.311,293.214 267.2,291.839 268.004,289.088C268.767,286.548 269.147,283.988 269.147,281.405Z" style="fill-rule:nonzero;"/>
        <path d="M293.715,298.865C292.868,300.472 291.303,301.276 289.017,301.276C286.901,301.276 285.42,300.557 284.573,299.118C284.319,298.696 284.192,298.229 284.192,297.722C284.192,297.299 284.34,296.601 284.637,295.627C284.933,294.653 285.082,293.849 285.082,293.214L284.827,252.202C284.827,249.958 284.827,248.816 284.827,248.773C284.955,248.222 285.546,247.769 286.606,247.409C287.662,247.048 288.785,246.87 289.97,246.87C291.705,246.87 292.805,247.186 293.272,247.821C293.736,248.457 293.97,249.113 293.97,249.79C293.97,250.255 293.8,251.026 293.462,252.106C293.122,253.184 292.954,254.063 292.954,254.741L292.954,292.833C292.954,293.468 293.133,294.304 293.493,295.341C293.853,296.379 294.032,297.129 294.032,297.596C294.032,298.06 293.927,298.483 293.715,298.865Z" style="fill-rule:nonzero;"/>
        <path d="M326.601,295.88C325.966,297.954 324.4,298.991 321.902,298.991C321.055,298.991 320.379,298.843 319.871,298.547C319.194,298.081 318.729,297.15 318.475,295.754C317.967,293.341 317.459,291.458 316.95,290.103C316.824,292.432 315.554,294.792 313.142,297.182C310.729,299.572 308.295,300.769 305.84,300.769C302.751,300.769 300.612,298.716 299.429,294.611C299.005,293.087 298.793,291.649 298.793,290.294C298.793,286.356 300.802,282.993 304.825,280.199C308.127,278.251 311.448,276.327 314.792,274.423C314.961,273.703 315.046,273.005 315.046,272.327C315.046,271.016 314.687,270.244 313.967,270.009C313.247,269.778 312.634,269.661 312.125,269.661C311.237,269.661 310.507,269.946 309.935,270.518C309.364,271.089 308.825,271.629 308.318,272.136C307.809,272.476 307.152,273.258 306.348,274.486C305.713,275.459 305.015,275.989 304.253,276.073C303.153,276.201 302.158,275.819 301.27,274.931C300.381,274.041 299.937,273.005 299.937,271.819C299.937,271.143 300.106,270.529 300.443,269.979C301.418,268.371 302.877,266.973 304.825,265.789C307.787,264.009 311.491,263.122 315.935,263.122C318.771,263.122 320.717,264.476 321.776,267.184C322.452,269.004 322.96,272.413 323.299,277.407C323.68,283.459 324.146,287.882 324.697,290.675C324.78,291.225 325.14,291.924 325.775,292.771C326.41,293.617 326.727,294.358 326.727,294.992C326.727,295.289 326.685,295.585 326.601,295.88ZM315.554,280.261C314.284,280.941 313.023,281.639 311.776,282.358C310.527,283.078 309.375,284.03 308.318,285.215C306.793,286.951 306.031,288.432 306.031,289.659C306.031,290.675 306.412,291.733 307.173,292.833C307.596,293.426 308.063,293.722 308.571,293.722C309.671,293.722 310.866,292.496 312.157,290.04C313.448,287.586 314.58,284.325 315.554,280.261Z" style="fill-rule:nonzero;"/>
        <path d="M373.327,268.455C373.201,269.386 372.692,270.231 371.803,270.994C370.49,272.179 369.729,272.899 369.518,273.153L355.551,292.072L365.074,290.548C365.538,290.463 366.173,290.242 366.978,289.881C367.782,289.522 368.438,289.342 368.946,289.342C370.131,289.342 371.146,289.881 371.994,290.96C372.839,292.04 373.264,293.194 373.264,294.421C373.264,295.479 372.978,296.315 372.407,296.927C371.835,297.541 371.105,297.847 370.215,297.847C370.004,297.847 369.39,297.785 368.376,297.659C367.57,297.575 366.893,297.575 366.343,297.659L354.535,299.499C354.026,299.582 353.264,299.88 352.25,300.388C351.401,300.853 350.641,301.063 349.963,301.022C348.397,300.938 347.022,300.397 345.836,299.403C344.651,298.41 344.059,297.236 344.059,295.88C344.059,295.627 344.081,295.373 344.123,295.12C344.292,294.103 344.714,293.3 345.392,292.707C346.45,291.776 347.043,291.225 347.17,291.056L361.391,271.375L354.535,272.263C354.195,272.306 353.741,272.433 353.169,272.644C352.598,272.857 352.143,272.962 351.805,272.962C351.423,272.962 351.022,272.857 350.599,272.644C348.186,271.544 346.98,270.084 346.98,268.265C346.98,267.248 347.382,266.254 348.186,265.28C348.694,264.645 349.415,264.328 350.344,264.328C350.641,264.328 351.297,264.414 352.313,264.582C353.159,264.666 353.857,264.688 354.407,264.645L364.311,263.502C364.819,263.46 365.517,263.28 366.407,262.961C367.294,262.644 367.994,262.487 368.502,262.487C369.771,262.487 370.935,263.164 371.994,264.517C373.051,265.873 373.496,267.184 373.327,268.455Z" style="fill-rule:nonzero;"/>
        <path d="M425.069,263.882C425.197,264.221 425.26,264.54 425.26,264.835C425.26,265.513 424.878,266.339 424.116,267.311C423.185,268.455 422.613,269.343 422.402,269.979L415.419,291.056C415.207,291.733 415.101,292.539 415.101,293.468C415.101,293.765 415.101,294.23 415.101,294.865C415.143,295.458 415.165,295.903 415.165,296.198C415.165,297.764 414.634,298.928 413.578,299.688C412.518,300.451 411.312,300.832 409.96,300.832C407.927,300.832 406.234,300.07 404.879,298.547C404.203,297.785 403.865,296.918 403.865,295.945C403.865,294.505 403.822,293.595 403.738,293.214L399.927,279.121L396.245,291.818C396.119,292.284 396.012,293.172 395.929,294.484C395.843,295.542 395.611,296.389 395.23,297.024C393.621,299.647 391.653,300.959 389.326,300.959C388.521,300.959 387.781,300.726 387.103,300.261C386.256,299.709 385.749,298.865 385.58,297.722C385.411,296.579 385.24,295.458 385.071,294.358L379.485,272.644C379.359,272.094 378.977,271.08 378.341,269.597C377.835,268.455 377.581,267.481 377.581,266.677C377.581,266.127 377.686,265.577 377.898,265.026C378.279,263.84 379.803,263.248 382.469,263.248C383.95,263.248 384.945,263.46 385.453,263.882C386.088,264.434 386.426,265.322 386.468,266.549C386.509,268.412 386.552,269.429 386.595,269.597L390.405,284.834L395.738,269.216C395.823,268.921 395.866,268.623 395.866,268.328C395.866,268.074 395.81,267.703 395.706,267.217C395.6,266.731 395.547,266.36 395.547,266.105C395.547,265.173 396.055,264.455 397.071,263.947C397.917,263.482 398.849,263.248 399.864,263.248C401.261,263.248 402.425,263.586 403.356,264.263C404.541,265.111 405.197,266.201 405.324,267.534C405.452,268.868 405.557,270.19 405.642,271.501L409.45,286.737L415.545,268.455C415.63,268.201 415.672,267.926 415.672,267.629C415.672,267.29 415.609,266.835 415.483,266.263C415.356,265.693 415.293,265.259 415.293,264.963C415.293,264.582 415.377,264.221 415.545,263.882C416.18,262.741 417.852,262.168 420.561,262.168C423.1,262.168 424.603,262.741 425.069,263.882Z" style="fill-rule:nonzero;"/>
        <path d="M439.923,266.423C439.923,267.016 439.594,267.937 438.939,269.185C438.282,270.434 437.955,271.46 437.955,272.263L437.955,290.929C437.955,291.776 438.187,292.972 438.653,294.516C439.118,296.062 439.352,297.129 439.352,297.722C439.352,298.568 439.011,299.204 438.335,299.625C437.277,300.303 436.134,300.643 434.908,300.643C433.298,300.643 432.156,300.091 431.479,298.991C430.589,297.637 430.146,293.595 430.146,286.866C430.146,285.256 430.177,282.748 430.241,279.341C430.304,275.936 430.336,273.449 430.336,271.882C430.336,271.291 430.273,270.518 430.146,269.565C430.019,268.614 429.956,267.926 429.956,267.502C429.956,266.105 430.463,264.898 431.479,263.882C431.902,263.46 432.685,263.248 433.828,263.248C434.971,263.248 436.114,263.428 437.255,263.788C438.399,264.149 439.129,264.561 439.446,265.026C439.763,265.492 439.923,265.957 439.923,266.423ZM439.097,250.931C439.224,251.058 439.288,251.27 439.288,251.566C439.288,251.947 439.161,252.603 438.906,253.535C438.611,254.678 438.42,255.461 438.335,255.884C438.42,255.503 438.462,256.434 438.462,258.676C438.462,259.567 438.197,260.147 437.669,260.422C437.139,260.699 436.472,260.834 435.669,260.834C434.526,260.834 433.362,260.603 432.176,260.137C430.738,259.545 430.019,258.762 430.019,257.788C430.019,257.492 430.146,257.079 430.4,256.55C430.653,256.021 430.801,255.587 430.844,255.248C430.927,254.953 430.927,254.105 430.844,252.709C430.758,251.652 430.97,250.931 431.479,250.552C432.156,250.043 433.362,249.79 435.098,249.79C437.002,249.79 438.335,250.17 439.097,250.931Z" style="fill-rule:nonzero;"/>
        <path d="M466.778,291.881C466.438,293.49 465.295,295.205 463.349,297.024C463.052,297.49 461.889,298.102 459.857,298.865C457.529,299.753 455.518,300.134 453.827,300.007C450.652,299.794 448.153,297.974 446.334,294.547C444.683,291.373 443.858,287.48 443.858,282.866C443.858,277.873 444.789,273.492 446.652,269.724C448.725,265.577 451.498,263.248 454.968,262.741C455.646,262.656 456.301,262.614 456.937,262.614C461.974,262.614 464.746,265.704 465.253,271.882C465.508,274.719 464.385,277.808 461.889,281.152C459.179,284.834 455.71,287.416 451.477,288.898C451.942,290.59 452.302,291.69 452.556,292.199C453.148,293.257 453.954,293.786 454.968,293.786C455.942,293.786 456.979,293.405 458.08,292.644C459.01,292.008 459.645,291.395 459.984,290.802C460.153,290.718 460.323,290.242 460.493,289.373C460.662,288.507 461.105,287.882 461.826,287.5C462.08,287.373 462.376,287.31 462.713,287.31C463.731,287.31 464.714,287.808 465.667,288.802C466.619,289.797 466.989,290.825 466.778,291.881ZM456.81,269.535C455.117,269.535 453.741,270.741 452.683,273.153C451.286,276.369 450.715,279.543 450.969,282.675C452.958,282.04 454.798,280.56 456.493,278.231C458.185,275.905 459.032,273.83 459.032,272.009C459.032,270.359 458.292,269.535 456.81,269.535Z" style="fill-rule:nonzero;"/>
        <path d="M495.853,266.169C495.684,267.058 494.879,267.672 493.441,268.01C491.749,268.433 490.668,268.921 490.204,269.471L479.854,281.405L479.854,291.056C479.854,291.988 480.119,292.929 480.649,293.88C481.177,294.833 481.442,295.564 481.442,296.072C481.442,296.579 481.293,297.15 480.998,297.785C480.278,299.393 478.818,300.197 476.618,300.197C475.093,300.197 473.887,299.709 472.999,298.737C472.406,298.102 472.11,297.299 472.11,296.325C472.11,295.987 472.151,295.436 472.237,294.673C472.322,293.914 472.364,293.3 472.364,292.833L472.364,269.089C472.364,268.708 472.194,268.244 471.856,267.693C471.516,267.142 471.347,266.699 471.347,266.36C471.347,266.105 471.431,265.81 471.601,265.47C472.151,264.455 473.866,263.947 476.745,263.947C478.987,263.947 480.257,264.476 480.552,265.534C480.679,265.957 480.744,266.318 480.744,266.614C480.744,267.08 480.573,267.439 480.236,267.693C479.896,267.947 479.728,268.201 479.728,268.455L479.854,270.741L485.315,264.963C485.949,264.242 486.616,263.523 487.315,262.803C488.013,262.084 488.827,261.682 489.758,261.597C491.197,261.47 492.585,261.789 493.918,262.549C495.251,263.312 495.917,264.307 495.917,265.534C495.917,265.747 495.895,265.957 495.853,266.169Z" style="fill-rule:nonzero;"/>
        <path d="M525.438,268.455C525.31,269.386 524.802,270.231 523.914,270.994C522.601,272.179 521.839,272.899 521.627,273.153L507.662,292.072L517.184,290.548C517.649,290.463 518.285,290.242 519.087,289.881C519.892,289.522 520.549,289.342 521.056,289.342C522.241,289.342 523.256,289.881 524.103,290.96C524.951,292.04 525.374,293.194 525.374,294.421C525.374,295.479 525.087,296.315 524.517,296.927C523.945,297.541 523.215,297.847 522.326,297.847C522.114,297.847 521.501,297.785 520.486,297.659C519.68,297.575 519.003,297.575 518.454,297.659L506.645,299.499C506.137,299.582 505.376,299.88 504.36,300.388C503.512,300.853 502.751,301.063 502.074,301.022C500.508,300.938 499.132,300.397 497.947,299.403C496.761,298.41 496.17,297.236 496.17,295.88C496.17,295.627 496.191,295.373 496.234,295.12C496.401,294.103 496.826,293.3 497.503,292.707C498.56,291.776 499.154,291.225 499.281,291.056L513.502,271.375L506.645,272.263C506.305,272.306 505.851,272.433 505.279,272.644C504.709,272.857 504.254,272.962 503.915,272.962C503.535,272.962 503.13,272.857 502.71,272.644C500.296,271.544 499.09,270.084 499.09,268.265C499.09,267.248 499.492,266.254 500.296,265.28C500.804,264.645 501.523,264.328 502.456,264.328C502.751,264.328 503.407,264.414 504.422,264.582C505.269,264.666 505.968,264.688 506.518,264.645L516.422,263.502C516.93,263.46 517.628,263.28 518.517,262.961C519.406,262.644 520.105,262.487 520.613,262.487C521.882,262.487 523.045,263.164 524.103,264.517C525.162,265.873 525.607,267.184 525.438,268.455Z" style="fill-rule:nonzero;"/>
        <path d="M557.624,295.88C556.989,297.954 555.422,298.991 552.925,298.991C552.079,298.991 551.402,298.843 550.894,298.547C550.216,298.081 549.751,297.15 549.499,295.754C548.989,293.341 548.481,291.458 547.974,290.103C547.847,292.432 546.577,294.792 544.165,297.182C541.752,299.572 539.318,300.769 536.863,300.769C533.773,300.769 531.636,298.716 530.452,294.611C530.028,293.087 529.817,291.649 529.817,290.294C529.817,286.356 531.826,282.993 535.848,280.199C539.15,278.251 542.471,276.327 545.816,274.423C545.984,273.703 546.069,273.005 546.069,272.327C546.069,271.016 545.71,270.244 544.99,270.009C544.27,269.778 543.656,269.661 543.148,269.661C542.259,269.661 541.53,269.946 540.958,270.518C540.387,271.089 539.847,271.629 539.339,272.136C538.832,272.476 538.175,273.258 537.371,274.486C536.737,275.459 536.039,275.989 535.276,276.073C534.175,276.201 533.181,275.819 532.293,274.931C531.404,274.041 530.96,273.005 530.96,271.819C530.96,271.143 531.128,270.529 531.467,269.979C532.441,268.371 533.9,266.973 535.848,265.789C538.809,264.009 542.514,263.122 546.958,263.122C549.793,263.122 551.74,264.476 552.799,267.184C553.475,269.004 553.983,272.413 554.323,277.407C554.703,283.459 555.168,287.882 555.719,290.675C555.803,291.225 556.164,291.924 556.798,292.771C557.434,293.617 557.752,294.358 557.752,294.992C557.752,295.289 557.709,295.585 557.624,295.88ZM546.577,280.261C545.307,280.941 544.047,281.639 542.799,282.358C541.55,283.078 540.397,284.03 539.339,285.215C537.816,286.951 537.053,288.432 537.053,289.659C537.053,290.675 537.434,291.733 538.197,292.833C538.619,293.426 539.085,293.722 539.594,293.722C540.694,293.722 541.889,292.496 543.18,290.04C544.47,287.586 545.603,284.325 546.577,280.261Z" style="fill-rule:nonzero;"/>
        <path d="M582.193,269.724C581.854,269.724 581.325,269.587 580.606,269.311C579.885,269.038 579.335,268.899 578.955,268.899C578.658,268.899 578.362,268.962 578.066,269.089L575.717,270.294L575.717,292.008C575.717,292.813 576.151,293.849 577.018,295.12C577.885,296.389 578.235,297.405 578.066,298.166C577.853,299.097 577.229,299.836 576.194,300.388C575.155,300.938 574.045,301.213 572.86,301.213C570.616,301.213 569.072,300.217 568.225,298.229C567.971,297.637 567.822,295.754 567.781,292.58C567.738,290.463 567.758,287.163 567.844,282.675C567.928,277.595 567.971,274.381 567.971,273.026C567.717,273.112 567.294,273.397 566.702,273.883C566.108,274.37 565.516,274.613 564.923,274.613C564.458,274.613 563.866,274.486 563.146,274.232C560.184,273.216 558.703,272.179 558.703,271.122C558.703,270.867 558.766,270.592 558.892,270.294C559.19,269.619 559.74,269.238 560.543,269.153C561.771,268.984 562.511,268.835 562.766,268.708C563.738,268.328 565.516,267.417 568.098,265.978L568.098,260.454C568.098,260.033 567.981,259.471 567.749,258.773C567.516,258.073 567.4,257.556 567.4,257.217C567.4,256.835 567.505,256.477 567.717,256.137C568.818,254.444 570.298,253.599 572.162,253.599C574.32,253.599 575.843,254.444 576.733,256.137C577.072,256.814 577.241,257.365 577.241,257.788C577.241,258.295 576.987,258.825 576.479,259.374C575.97,259.926 575.717,260.433 575.717,260.9L575.717,264.009C576.479,263.671 577.325,263.101 578.256,262.294C578.975,261.703 579.588,261.408 580.098,261.408C580.308,261.408 580.543,261.45 580.795,261.535C583.462,262.253 584.795,263.861 584.795,266.36C584.795,267.164 584.551,267.926 584.066,268.644C583.578,269.366 582.954,269.724 582.193,269.724Z" style="fill-rule:nonzero;"/>
        <path d="M558.1,297.427C558.1,298.441 557.656,299.479 556.767,300.537C555.37,302.23 554.629,303.14 554.544,303.267C554.165,304.115 553.784,304.94 553.403,305.744C552.894,306.884 552.408,307.562 551.942,307.775C551.476,307.987 550.948,308.091 550.355,308.091C549.423,308.091 548.598,307.87 547.878,307.424C547.159,306.981 546.799,306.42 546.799,305.744C546.799,305.49 546.84,305.256 546.926,305.043C547.984,302.336 550.101,299.289 553.275,295.903C553.656,295.522 554.185,295.331 554.862,295.331C555.625,295.331 556.354,295.543 557.052,295.966C557.752,296.39 558.1,296.877 558.1,297.427Z" style="fill-rule:nonzero;"/>
        <path d="M91.804,327.553C91.989,331.099 91.381,334.756 89.979,338.527C88.576,342.296 87.082,344.419 85.494,344.896C84.859,345.107 84.237,345.187 83.629,345.134C82.994,345.054 82.372,344.975 81.764,344.896C76.314,344.261 73.311,338.481 72.755,327.553C72.597,324.59 73.073,321.416 74.184,318.029C75.216,314.881 76.288,312.936 77.398,312.196C77.663,312.01 77.954,311.917 78.272,311.917C78.51,311.917 78.88,311.991 79.383,312.136C79.885,312.282 80.269,312.354 80.534,312.354C80.851,312.354 81.427,312.282 82.26,312.136C83.093,311.991 83.709,311.917 84.106,311.917C84.476,311.917 84.78,311.971 85.018,312.077C89.119,313.743 91.381,318.902 91.804,327.553ZM86.447,327.553C86.182,324.247 85.825,321.759 85.376,320.092C84.634,317.289 83.536,315.886 82.082,315.886C81.685,315.886 81.268,315.992 80.832,316.204C80.395,316.415 79.819,317.778 79.105,320.291C78.364,323.043 77.994,325.463 77.994,327.553C77.994,330.279 78.47,333.143 79.422,336.145C80.375,339.148 81.288,340.65 82.161,340.65C82.981,340.65 83.893,339.3 84.899,336.602C85.957,333.797 86.486,331.139 86.486,328.624C86.486,328.254 86.473,327.898 86.447,327.553Z" style="fill-rule:nonzero;"/>
        <path d="M110.376,323.982C110.27,324.538 109.767,324.921 108.868,325.132C107.81,325.398 107.135,325.702 106.844,326.045L100.376,333.506L100.376,339.539C100.376,340.121 100.541,340.709 100.872,341.304C101.202,341.9 101.368,342.356 101.368,342.673C101.368,342.991 101.274,343.348 101.09,343.745C100.64,344.75 99.727,345.253 98.352,345.253C97.399,345.253 96.645,344.949 96.089,344.34C95.719,343.944 95.534,343.441 95.534,342.832C95.534,342.621 95.56,342.277 95.613,341.8C95.666,341.324 95.692,340.941 95.692,340.65L95.692,325.807C95.692,325.569 95.586,325.279 95.375,324.934C95.163,324.59 95.058,324.313 95.058,324.101C95.058,323.942 95.11,323.757 95.216,323.545C95.56,322.911 96.631,322.593 98.431,322.593C99.833,322.593 100.627,322.924 100.812,323.585C100.891,323.85 100.931,324.075 100.931,324.259C100.931,324.551 100.825,324.776 100.614,324.934C100.401,325.093 100.296,325.251 100.296,325.411L100.376,326.839L103.789,323.228C104.185,322.778 104.602,322.329 105.039,321.878C105.475,321.429 105.984,321.178 106.566,321.124C107.465,321.045 108.333,321.244 109.166,321.72C109.999,322.196 110.416,322.818 110.416,323.585C110.416,323.717 110.402,323.85 110.376,323.982Z" style="fill-rule:nonzero;"/>
        <path d="M125.099,323.149C125.151,325.424 125.271,329.167 125.456,334.379C125.561,338.057 125.615,340.689 125.615,342.277C125.615,345.769 125.337,348.15 124.781,349.42C124.226,350.69 123.101,351.39 121.408,351.523C119.291,351.708 117.426,351.153 115.813,349.857C115.019,349.619 114.516,349.433 114.304,349.301C113.854,349.036 113.564,348.586 113.431,347.952C113.193,346.707 114.171,346.086 116.368,346.086C116.923,346.086 117.453,346.152 117.955,346.285C118.326,346.364 118.735,346.675 119.186,347.217C119.635,347.759 120.059,348.044 120.456,348.071C121.223,348.123 121.606,347.039 121.606,344.817C121.606,343.864 121.54,342.316 121.408,340.173C120.456,341.788 119.767,342.832 119.344,343.308C118.471,344.208 117.453,344.658 116.289,344.658C114.648,344.658 113.325,343.52 112.32,341.245C111.394,339.155 110.931,336.616 110.931,333.625C110.931,330.556 111.42,327.964 112.399,325.847C113.511,323.466 115.044,322.249 117.003,322.196C118.061,322.17 118.841,322.381 119.344,322.831C119.847,323.281 120.336,323.744 120.813,324.22C120.468,323.267 120.548,322.553 121.051,322.077C121.341,321.786 121.778,321.64 122.36,321.64C122.916,321.64 123.472,321.786 124.027,322.077C124.583,322.369 124.94,322.725 125.099,323.149ZM120.336,333.268C120.442,331.734 120.258,330.279 119.785,328.903C119.259,327.369 118.577,326.601 117.737,326.601C117.054,326.601 116.45,327.369 115.925,328.903C115.453,330.279 115.19,331.734 115.138,333.268C115.085,334.882 115.203,336.337 115.492,337.633C115.859,339.168 116.372,339.935 117.028,339.935C117.606,339.935 118.275,339.188 119.037,337.693C119.798,336.199 120.231,334.723 120.336,333.268Z" style="fill-rule:nonzero;"/>
        <path d="M146.528,342.554C146.131,343.851 145.152,344.498 143.591,344.498C143.062,344.498 142.639,344.406 142.321,344.221C141.898,343.93 141.607,343.348 141.448,342.475C141.131,340.967 140.814,339.79 140.496,338.943C140.417,340.398 139.623,341.873 138.115,343.368C136.607,344.863 135.085,345.61 133.551,345.61C131.62,345.61 130.283,344.327 129.543,341.76C129.278,340.808 129.146,339.909 129.146,339.062C129.146,336.602 130.402,334.498 132.916,332.752C134.98,331.536 137.057,330.332 139.147,329.141C139.252,328.691 139.306,328.254 139.306,327.832C139.306,327.011 139.081,326.529 138.631,326.382C138.181,326.238 137.797,326.165 137.48,326.165C136.924,326.165 136.468,326.343 136.111,326.701C135.753,327.057 135.417,327.395 135.099,327.712C134.781,327.924 134.371,328.414 133.869,329.18C133.472,329.79 133.035,330.12 132.559,330.172C131.871,330.252 131.25,330.014 130.694,329.458C130.138,328.903 129.86,328.254 129.86,327.514C129.86,327.091 129.966,326.707 130.178,326.363C130.786,325.358 131.699,324.485 132.916,323.744C134.768,322.632 137.083,322.077 139.861,322.077C141.633,322.077 142.851,322.924 143.512,324.617C143.935,325.754 144.252,327.884 144.464,331.006C144.703,334.79 144.994,337.554 145.337,339.3C145.39,339.644 145.615,340.081 146.012,340.61C146.409,341.139 146.607,341.602 146.607,341.998C146.607,342.184 146.581,342.37 146.528,342.554ZM139.623,332.791C138.829,333.215 138.042,333.652 137.262,334.101C136.481,334.551 135.76,335.147 135.099,335.887C134.147,336.972 133.67,337.898 133.67,338.665C133.67,339.3 133.908,339.961 134.384,340.65C134.648,341.02 134.94,341.206 135.258,341.206C135.945,341.206 136.692,340.438 137.5,338.904C138.307,337.37 139.014,335.332 139.623,332.791Z" style="fill-rule:nonzero;"/>
        <path d="M167.679,341.681C167.626,342.263 167.243,342.759 166.528,343.169C165.814,343.58 165.021,343.785 164.147,343.785C162.851,343.785 161.964,343.374 161.488,342.554C161.7,334.406 161.461,330.279 160.774,330.172C160.112,330.067 158.499,333.718 155.933,341.125C155.933,341.919 155.933,342.713 155.933,343.507C155.906,344.459 155.648,345.134 155.159,345.531C154.668,345.927 154.147,346.126 153.591,346.126C152.639,346.126 151.62,345.61 150.535,344.579C150.218,344.314 150.045,342.303 150.02,338.546C150.045,340.848 150.059,336.576 150.059,325.728C150.059,325.49 150.032,325.166 149.98,324.755C149.926,324.346 149.9,324.048 149.9,323.863C149.9,323.361 150.032,322.924 150.297,322.553C150.615,322.077 151.117,321.838 151.805,321.838C152.52,321.838 153.267,322.057 154.047,322.494C154.828,322.93 155.297,323.347 155.456,323.744C155.562,324.008 155.615,324.273 155.615,324.538C155.615,324.802 155.509,325.172 155.297,325.649C155.085,326.124 154.98,326.522 154.98,326.839L154.98,332.316C156.647,328.771 157.903,326.429 158.75,325.291C160.258,323.333 161.964,322.421 163.87,322.553C165.007,322.632 165.814,323.691 166.29,325.728C166.661,327.262 166.859,329.538 166.885,332.554C166.885,334.935 166.885,337.316 166.885,339.697C166.938,339.882 167.124,340.213 167.441,340.689C167.626,340.954 167.705,341.285 167.679,341.681Z" style="fill-rule:nonzero;"/>
        <path d="M177.084,324.14C177.084,324.511 176.878,325.086 176.469,325.867C176.058,326.648 175.854,327.29 175.854,327.791L175.854,339.459C175.854,339.989 175.999,340.736 176.29,341.702C176.581,342.667 176.727,343.335 176.727,343.706C176.727,344.234 176.515,344.631 176.092,344.896C175.43,345.319 174.716,345.531 173.949,345.531C172.943,345.531 172.229,345.187 171.806,344.498C171.25,343.653 170.972,341.125 170.972,336.919C170.972,335.914 170.992,334.346 171.032,332.216C171.071,330.087 171.091,328.533 171.091,327.553C171.091,327.183 171.052,326.701 170.972,326.105C170.893,325.509 170.853,325.08 170.853,324.815C170.853,323.942 171.17,323.188 171.806,322.553C172.07,322.289 172.56,322.157 173.274,322.157C173.988,322.157 174.703,322.269 175.417,322.494C176.131,322.718 176.587,322.977 176.786,323.267C176.984,323.559 177.084,323.85 177.084,324.14ZM176.568,314.457C176.647,314.537 176.687,314.669 176.687,314.854C176.687,315.092 176.607,315.502 176.449,316.084C176.263,316.799 176.144,317.289 176.092,317.553C176.144,317.315 176.171,317.897 176.171,319.299C176.171,319.855 176.005,320.218 175.675,320.39C175.344,320.563 174.927,320.648 174.425,320.648C173.71,320.648 172.982,320.503 172.242,320.211C171.342,319.841 170.893,319.352 170.893,318.744C170.893,318.559 170.972,318.3 171.131,317.969C171.29,317.639 171.382,317.368 171.409,317.156C171.461,316.971 171.461,316.442 171.409,315.569C171.356,314.908 171.488,314.457 171.806,314.219C172.229,313.902 172.982,313.743 174.068,313.743C175.258,313.743 176.092,313.981 176.568,314.457Z" style="fill-rule:nonzero;"/>
        <path d="M198.038,325.411C197.958,325.993 197.641,326.522 197.085,326.998C196.265,327.739 195.789,328.188 195.656,328.347L186.926,340.173L192.878,339.221C193.169,339.168 193.566,339.029 194.069,338.804C194.571,338.58 194.982,338.467 195.299,338.467C196.04,338.467 196.674,338.804 197.204,339.479C197.733,340.154 197.998,340.874 197.998,341.642C197.998,342.303 197.819,342.826 197.462,343.209C197.105,343.593 196.648,343.785 196.093,343.785C195.96,343.785 195.577,343.745 194.942,343.665C194.439,343.613 194.016,343.613 193.672,343.665L186.291,344.817C185.973,344.87 185.497,345.054 184.862,345.372C184.333,345.663 183.856,345.795 183.434,345.769C182.454,345.715 181.594,345.378 180.854,344.757C180.113,344.135 179.743,343.402 179.743,342.554C179.743,342.396 179.756,342.237 179.782,342.079C179.888,341.443 180.152,340.941 180.576,340.57C181.237,339.989 181.608,339.644 181.687,339.539L190.577,327.236L186.291,327.791C186.079,327.818 185.794,327.898 185.438,328.03C185.081,328.163 184.796,328.228 184.585,328.228C184.346,328.228 184.094,328.163 183.83,328.03C182.322,327.342 181.568,326.429 181.568,325.291C181.568,324.657 181.819,324.035 182.322,323.426C182.64,323.03 183.089,322.831 183.671,322.831C183.856,322.831 184.267,322.884 184.902,322.99C185.431,323.043 185.867,323.056 186.211,323.03L192.402,322.315C192.72,322.289 193.156,322.176 193.712,321.978C194.268,321.78 194.704,321.68 195.022,321.68C195.815,321.68 196.543,322.104 197.204,322.95C197.865,323.797 198.143,324.617 198.038,325.411Z" style="fill-rule:nonzero;"/>
        <path d="M218.158,342.554C217.761,343.851 216.782,344.498 215.221,344.498C214.691,344.498 214.269,344.406 213.951,344.221C213.527,343.93 213.237,343.348 213.078,342.475C212.76,340.967 212.443,339.79 212.126,338.943C212.046,340.398 211.252,341.873 209.744,343.368C208.236,344.863 206.715,345.61 205.181,345.61C203.249,345.61 201.913,344.327 201.172,341.76C200.908,340.808 200.775,339.909 200.775,339.062C200.775,336.602 202.032,334.498 204.545,332.752C206.609,331.536 208.686,330.332 210.776,329.141C210.881,328.691 210.935,328.254 210.935,327.832C210.935,327.011 210.71,326.529 210.26,326.382C209.81,326.238 209.427,326.165 209.109,326.165C208.554,326.165 208.097,326.343 207.74,326.701C207.383,327.057 207.046,327.395 206.728,327.712C206.411,327.924 206.001,328.414 205.498,329.18C205.101,329.79 204.665,330.12 204.189,330.172C203.5,330.252 202.879,330.014 202.323,329.458C201.768,328.903 201.49,328.254 201.49,327.514C201.49,327.091 201.595,326.707 201.807,326.363C202.416,325.358 203.328,324.485 204.545,323.744C206.397,322.632 208.712,322.077 211.49,322.077C213.263,322.077 214.48,322.924 215.142,324.617C215.564,325.754 215.882,327.884 216.094,331.006C216.332,334.79 216.623,337.554 216.967,339.3C217.02,339.644 217.245,340.081 217.642,340.61C218.039,341.139 218.237,341.602 218.237,341.998C218.237,342.184 218.21,342.37 218.158,342.554ZM211.252,332.791C210.459,333.215 209.671,333.652 208.891,334.101C208.11,334.551 207.389,335.147 206.728,335.887C205.776,336.972 205.3,337.898 205.3,338.665C205.3,339.3 205.538,339.961 206.014,340.65C206.278,341.02 206.569,341.206 206.887,341.206C207.575,341.206 208.322,340.438 209.129,338.904C209.936,337.37 210.644,335.332 211.252,332.791Z" style="fill-rule:nonzero;"/>
        <path d="M234.387,337.633C234.361,338.215 234.11,338.811 233.633,339.419C232.893,340.292 232.416,340.954 232.205,341.404C230.538,343.944 228.818,345.213 227.046,345.213C224.956,345.213 223.328,344.156 222.165,342.039C221.133,340.108 220.617,337.673 220.617,334.737C220.617,331.376 221.252,328.454 222.522,325.966C223.924,323.214 225.736,321.838 227.959,321.838C229.705,321.838 231.12,322.805 232.205,324.736C233.104,326.376 233.554,328.163 233.554,330.093C233.554,330.623 233.514,331.085 233.435,331.482C233.25,332.382 232.496,332.832 231.173,332.832C230.141,332.832 229.348,332.54 228.792,331.958C228.527,331.667 228.395,330.993 228.395,329.935C228.395,329.67 228.408,329.287 228.435,328.784C228.435,328.254 228.435,327.871 228.435,327.633C228.435,326.442 228.223,325.847 227.8,325.847C227.35,325.847 226.874,327.151 226.371,329.756C225.868,332.362 225.617,334.803 225.617,337.078C225.617,339.724 226.014,341.046 226.808,341.046C227.839,341.046 228.606,340.213 229.109,338.546C229.321,338.308 229.44,337.832 229.466,337.118C229.466,336.483 229.625,336.066 229.943,335.868C230.26,335.669 230.723,335.57 231.332,335.57C232.126,335.57 232.813,335.743 233.396,336.085C234.083,336.483 234.414,336.998 234.387,337.633Z" style="fill-rule:nonzero;"/>
        <path d="M242.8,328.545C242.8,336.774 242.813,339.605 242.839,337.039C242.786,341.006 242.443,344.076 241.808,346.246C240.961,349.182 239.599,350.769 237.72,351.007C236.9,351.113 236.001,350.934 235.022,350.471C234.043,350.008 233.553,349.472 233.553,348.865C233.553,348.652 233.633,348.441 233.792,348.229C234.083,347.859 234.565,347.726 235.24,347.832C235.915,347.938 236.371,347.912 236.609,347.753C237.456,347.171 237.879,342.396 237.879,333.427C237.879,331.337 237.852,328.824 237.8,325.886C237.8,325.649 237.72,325.232 237.562,324.636C237.403,324.041 237.323,323.598 237.323,323.307C237.323,322.381 238.064,321.918 239.546,321.918C240.815,321.918 241.741,322.21 242.324,322.791C242.8,323.267 243.038,323.956 243.038,324.855C243.038,325.279 242.999,325.893 242.919,326.701C242.839,327.507 242.8,328.123 242.8,328.545ZM242.8,320.411C242.614,320.833 242.099,321.045 241.252,321.045C240.643,321.045 240.062,320.913 239.506,320.648C238.792,320.331 238.435,319.908 238.435,319.378C238.435,319.219 238.474,318.996 238.554,318.704C238.633,318.413 238.673,318.214 238.673,318.109C238.673,317.95 238.646,317.659 238.593,317.236C238.54,316.812 238.514,316.495 238.514,316.283C238.514,315.674 238.673,315.225 238.99,314.934C239.413,314.51 239.969,314.298 240.657,314.298C241.212,314.298 241.741,314.471 242.244,314.815C242.747,315.159 242.999,315.608 242.999,316.164C242.999,316.402 242.919,316.786 242.76,317.315C242.602,317.844 242.535,318.241 242.562,318.505C242.535,318.717 242.588,318.961 242.721,319.24C242.853,319.517 242.919,319.736 242.919,319.894C242.919,320.053 242.879,320.225 242.8,320.411Z" style="fill-rule:nonzero;"/>
        <path d="M263.793,342.554C263.396,343.851 262.417,344.498 260.856,344.498C260.326,344.498 259.903,344.406 259.585,344.221C259.162,343.93 258.872,343.348 258.712,342.475C258.395,340.967 258.078,339.79 257.76,338.943C257.681,340.398 256.887,341.873 255.379,343.368C253.871,344.863 252.35,345.61 250.815,345.61C248.884,345.61 247.547,344.327 246.807,341.76C246.543,340.808 246.41,339.909 246.41,339.062C246.41,336.602 247.667,334.498 250.18,332.752C252.244,331.536 254.321,330.332 256.411,329.141C256.516,328.691 256.57,328.254 256.57,327.832C256.57,327.011 256.345,326.529 255.895,326.382C255.445,326.238 255.062,326.165 254.744,326.165C254.189,326.165 253.732,326.343 253.375,326.701C253.018,327.057 252.681,327.395 252.363,327.712C252.045,327.924 251.635,328.414 251.133,329.18C250.736,329.79 250.299,330.12 249.823,330.172C249.135,330.252 248.514,330.014 247.958,329.458C247.402,328.903 247.125,328.254 247.125,327.514C247.125,327.091 247.23,326.707 247.442,326.363C248.05,325.358 248.963,324.485 250.18,323.744C252.032,322.632 254.347,322.077 257.125,322.077C258.897,322.077 260.115,322.924 260.776,324.617C261.199,325.754 261.517,327.884 261.729,331.006C261.967,334.79 262.258,337.554 262.602,339.3C262.654,339.644 262.879,340.081 263.276,340.61C263.673,341.139 263.872,341.602 263.872,341.998C263.872,342.184 263.845,342.37 263.793,342.554ZM256.887,332.791C256.093,333.215 255.306,333.652 254.526,334.101C253.745,334.551 253.024,335.147 252.363,335.887C251.411,336.972 250.935,337.898 250.935,338.665C250.935,339.3 251.172,339.961 251.648,340.65C251.913,341.02 252.204,341.206 252.522,341.206C253.21,341.206 253.957,340.438 254.764,338.904C255.571,337.37 256.278,335.332 256.887,332.791Z" style="fill-rule:nonzero;"/>
        <path d="M292.127,314.219C292.524,314.801 292.723,315.582 292.723,316.561C292.723,318.863 291.466,322.408 288.953,327.197C286.334,332.249 284.19,334.776 282.523,334.776C282.1,334.776 281.783,334.538 281.571,334.062C281.492,334.67 281.452,335.438 281.452,336.364C281.452,337.951 281.544,339.777 281.73,341.84C281.73,342.026 281.795,342.33 281.928,342.752C282.061,343.176 282.127,343.494 282.127,343.706C282.127,344.208 281.783,344.631 281.095,344.975C280.777,345.134 280.354,345.213 279.825,345.213C278.952,345.213 278.131,345.015 277.364,344.618C276.491,344.195 275.988,343.639 275.856,342.952C275.83,342.766 275.817,342.608 275.817,342.475C275.817,342.079 275.956,341.714 276.233,341.383C276.511,341.053 276.65,340.834 276.65,340.729L275.936,315.013C275.936,314.934 275.896,314.775 275.817,314.537C275.737,314.298 275.698,314.114 275.698,313.981C275.698,313.505 276.041,313.135 276.73,312.87C277.258,312.659 277.814,312.552 278.397,312.552C278.581,312.552 279.322,312.632 280.619,312.79C280.777,312.79 281.564,312.506 282.98,311.937C284.395,311.369 285.645,311.084 286.73,311.084C288.847,311.084 290.646,312.129 292.127,314.219ZM286.214,315.807C285.579,315.807 284.766,316.144 283.773,316.819C282.781,317.494 281.915,318.267 281.174,319.14L281.333,328.268C282.497,327.395 283.76,325.642 285.123,323.009C286.485,320.378 287.167,318.373 287.167,316.998C287.167,316.204 286.849,315.807 286.214,315.807Z" style="fill-rule:nonzero;"/>
        <path d="M303.993,323.744C305.765,325.543 306.652,328.573 306.652,332.832C306.652,336.139 306.03,338.957 304.787,341.285C303.384,343.904 301.453,345.213 298.993,345.213C296.558,345.213 294.68,344.037 293.357,341.681C292.193,339.618 291.611,336.998 291.611,333.824C291.611,331.02 292.061,328.506 292.96,326.284C293.913,323.903 295.129,322.5 296.612,322.077C297.378,321.866 298.172,321.759 298.993,321.759C301.03,321.759 302.696,322.421 303.993,323.744ZM299.469,325.649C298.596,325.569 297.842,326.389 297.207,328.109C296.651,329.67 296.374,331.31 296.374,333.03C296.374,335.517 296.479,337.276 296.691,338.308C297.061,340.161 297.828,341.179 298.993,341.364C299.733,341.47 300.421,340.451 301.056,338.308C301.665,336.245 301.969,334.036 301.969,331.681C301.969,327.818 301.136,325.807 299.469,325.649Z" style="fill-rule:nonzero;"/>
        <path d="M325.899,325.411C325.819,325.993 325.502,326.522 324.946,326.998C324.126,327.739 323.649,328.188 323.518,328.347L314.787,340.173L320.74,339.221C321.031,339.168 321.427,339.029 321.931,338.804C322.433,338.58 322.842,338.467 323.161,338.467C323.901,338.467 324.536,338.804 325.065,339.479C325.594,340.154 325.858,340.874 325.858,341.642C325.858,342.303 325.68,342.826 325.323,343.209C324.965,343.593 324.51,343.785 323.954,343.785C323.821,343.785 323.438,343.745 322.803,343.665C322.3,343.613 321.878,343.613 321.535,343.665L314.152,344.817C313.835,344.87 313.358,345.054 312.724,345.372C312.194,345.663 311.718,345.795 311.295,345.769C310.315,345.715 309.456,345.378 308.715,344.757C307.974,344.135 307.604,343.402 307.604,342.554C307.604,342.396 307.617,342.237 307.644,342.079C307.749,341.443 308.014,340.941 308.438,340.57C309.099,339.989 309.469,339.644 309.548,339.539L318.439,327.236L314.152,327.791C313.94,327.818 313.656,327.898 313.299,328.03C312.942,328.163 312.657,328.228 312.446,328.228C312.208,328.228 311.956,328.163 311.691,328.03C310.184,327.342 309.43,326.429 309.43,325.291C309.43,324.657 309.681,324.035 310.184,323.426C310.501,323.03 310.951,322.831 311.533,322.831C311.718,322.831 312.128,322.884 312.764,322.99C313.292,323.043 313.729,323.056 314.073,323.03L320.263,322.315C320.582,322.289 321.017,322.176 321.574,321.978C322.128,321.78 322.565,321.68 322.881,321.68C323.676,321.68 324.403,322.104 325.065,322.95C325.725,323.797 326.004,324.617 325.899,325.411Z" style="fill-rule:nonzero;"/>
        <path d="M347.288,324.458C347.368,324.988 347.235,325.556 346.891,326.165C346.282,327.17 345.964,327.712 345.939,327.791C344.828,330.437 343.107,334.697 340.78,340.57C339.721,343.374 339.059,345.901 338.795,348.15C338.742,348.362 338.729,348.825 338.755,349.539C338.782,350.121 338.689,350.557 338.478,350.848C338.054,351.404 337.419,351.682 336.573,351.682C335.065,351.682 334.085,351.113 333.636,349.975C333.53,349.684 333.477,349.433 333.477,349.221C333.477,348.957 333.583,348.659 333.795,348.329C334.006,347.998 334.138,347.726 334.192,347.515L335.144,342.554L329.429,326.124C329.35,325.914 329.138,325.477 328.794,324.815C328.556,324.339 328.438,323.929 328.438,323.585C328.438,323.4 328.464,323.214 328.517,323.03C328.781,322.077 329.681,321.601 331.215,321.601C332.168,321.601 332.922,321.759 333.477,322.077C334.138,322.474 334.522,323.175 334.628,324.18C334.76,325.821 334.853,326.734 334.906,326.918L337.526,335.173L341.574,324.934C341.599,324.855 341.718,324.273 341.93,323.188C342.063,322.527 342.34,322.077 342.764,321.838C343.028,321.68 343.333,321.601 343.676,321.601C344.444,321.601 345.21,321.885 345.978,322.454C346.746,323.023 347.182,323.691 347.288,324.458Z" style="fill-rule:nonzero;"/>
        <path d="M363.835,326.205C363.624,326.205 363.293,326.119 362.843,325.946C362.393,325.775 362.05,325.688 361.812,325.688C361.627,325.688 361.441,325.728 361.256,325.807L359.788,326.561L359.788,340.133C359.788,340.636 360.059,341.285 360.601,342.079C361.143,342.872 361.362,343.507 361.256,343.983C361.124,344.565 360.734,345.028 360.085,345.372C359.437,345.715 358.743,345.888 358.002,345.888C356.599,345.888 355.634,345.266 355.105,344.023C354.946,343.653 354.853,342.475 354.828,340.491C354.8,339.168 354.814,337.105 354.867,334.3C354.919,331.125 354.946,329.115 354.946,328.268C354.788,328.321 354.523,328.499 354.153,328.803C353.782,329.108 353.412,329.26 353.042,329.26C352.75,329.26 352.379,329.18 351.93,329.022C350.079,328.387 349.152,327.739 349.152,327.078C349.152,326.918 349.192,326.747 349.271,326.561C349.457,326.138 349.801,325.9 350.303,325.847C351.07,325.742 351.534,325.649 351.692,325.569C352.3,325.332 353.412,324.762 355.026,323.863L355.026,320.411C355.026,320.146 354.953,319.795 354.807,319.359C354.662,318.922 354.589,318.598 354.589,318.386C354.589,318.148 354.655,317.923 354.788,317.711C355.475,316.654 356.401,316.124 357.566,316.124C358.915,316.124 359.868,316.654 360.422,317.711C360.634,318.135 360.741,318.479 360.741,318.744C360.741,319.061 360.582,319.392 360.264,319.736C359.947,320.08 359.788,320.397 359.788,320.688L359.788,322.632C360.264,322.421 360.793,322.064 361.376,321.561C361.825,321.191 362.209,321.005 362.526,321.005C362.659,321.005 362.804,321.032 362.962,321.085C364.629,321.535 365.462,322.541 365.462,324.101C365.462,324.604 365.31,325.08 365.006,325.53C364.702,325.98 364.312,326.205 363.835,326.205Z" style="fill-rule:nonzero;"/>
        <path d="M386.773,341.125C386.799,341.311 386.813,341.497 386.813,341.681C386.813,343.269 385.926,344.34 384.154,344.896C383.81,345.001 383.505,345.054 383.242,345.054C382.765,345.054 382.329,344.83 381.932,344.38C381.323,343.719 380.953,343.348 380.821,343.269L373.677,338.268L373.677,341.602C373.677,341.84 373.75,342.138 373.896,342.495C374.041,342.852 374.114,343.123 374.114,343.308C374.114,343.6 373.968,343.904 373.677,344.221C373.016,344.909 372.063,345.253 370.82,345.253C369.629,345.253 368.862,344.856 368.518,344.062C368.36,343.692 368.306,343.308 368.36,342.912C368.465,342.224 368.518,341.76 368.518,341.523L368.518,315.41C368.492,314.934 368.544,314.219 368.677,313.267C368.916,312.685 369.642,312.394 370.86,312.394C372.447,312.394 373.465,312.685 373.916,313.267C374.154,313.584 374.273,313.928 374.273,314.298C374.273,314.59 374.173,315.04 373.975,315.648C373.777,316.257 373.677,316.733 373.677,317.077C373.624,318.611 373.624,322.937 373.677,330.053C375.159,328.624 377.064,326.76 379.392,324.458C379.71,324.14 380.12,323.572 380.623,322.751C380.913,322.275 381.349,321.957 381.932,321.799C382.09,321.747 382.275,321.72 382.488,321.72C383.254,321.72 384.042,322.011 384.849,322.593C385.656,323.175 386.059,323.797 386.059,324.458C386.059,324.829 385.794,325.279 385.265,325.807C384.736,326.336 384.207,326.839 383.678,327.315L377.09,334.141L384.154,339.221C384.207,339.274 384.736,339.486 385.742,339.856C386.323,340.094 386.668,340.517 386.773,341.125Z" style="fill-rule:nonzero;"/>
        <path d="M403.718,324.855C403.771,325.251 403.692,325.675 403.48,326.124C403.215,326.734 403.056,327.183 403.003,327.474C403.003,332.977 402.779,336.8 402.33,338.943C401.35,343.441 399.273,345.69 396.098,345.69C391.468,345.69 389.154,341.47 389.154,333.03C389.154,330.755 389.326,328.347 389.669,325.807C389.484,325.199 389.392,324.657 389.392,324.18C389.392,323.414 389.643,322.765 390.146,322.236C390.569,321.786 391.191,321.561 392.011,321.561C392.672,321.561 393.294,321.7 393.877,321.978C394.458,322.255 394.802,322.58 394.908,322.95C394.96,323.135 394.988,323.321 394.988,323.505C394.988,323.85 394.841,324.399 394.551,325.153C394.259,325.907 394.14,326.522 394.194,326.998C393.929,328.48 393.797,330.345 393.797,332.593C393.797,334.87 393.942,336.76 394.234,338.268C394.604,340.014 395.12,340.887 395.781,340.887C396.892,340.887 397.62,339.009 397.963,335.252C398.149,333.374 398.242,330.384 398.242,326.284C398.242,326.019 398.202,325.635 398.123,325.132C398.043,324.63 398.003,324.259 398.003,324.022C398.003,323.386 398.242,322.95 398.718,322.711C398.982,322.58 399.353,322.513 399.829,322.513C400.702,322.513 401.509,322.699 402.25,323.069C403.123,323.519 403.612,324.115 403.718,324.855Z" style="fill-rule:nonzero;"/>
        <path d="M432.212,314.219C432.609,314.801 432.807,315.582 432.807,316.561C432.807,318.863 431.55,322.408 429.038,327.197C426.418,332.249 424.275,334.776 422.609,334.776C422.185,334.776 421.868,334.538 421.656,334.062C421.577,334.67 421.537,335.438 421.537,336.364C421.537,337.951 421.629,339.777 421.815,341.84C421.815,342.026 421.88,342.33 422.013,342.752C422.145,343.176 422.211,343.494 422.211,343.706C422.211,344.208 421.868,344.631 421.18,344.975C420.863,345.134 420.439,345.213 419.91,345.213C419.037,345.213 418.216,345.015 417.45,344.618C416.577,344.195 416.074,343.639 415.941,342.952C415.915,342.766 415.902,342.608 415.902,342.475C415.902,342.079 416.041,341.714 416.319,341.383C416.596,341.053 416.735,340.834 416.735,340.729L416.021,315.013C416.021,314.934 415.981,314.775 415.902,314.537C415.823,314.298 415.783,314.114 415.783,313.981C415.783,313.505 416.127,313.135 416.815,312.87C417.343,312.659 417.899,312.552 418.481,312.552C418.667,312.552 419.407,312.632 420.704,312.79C420.863,312.79 421.649,312.506 423.065,311.937C424.48,311.369 425.73,311.084 426.815,311.084C428.931,311.084 430.73,312.129 432.212,314.219ZM426.299,315.807C425.665,315.807 424.851,316.144 423.859,316.819C422.867,317.494 422,318.267 421.259,319.14L421.418,328.268C422.582,327.395 423.845,325.642 425.208,323.009C426.57,320.378 427.252,318.373 427.252,316.998C427.252,316.204 426.934,315.807 426.299,315.807Z" style="fill-rule:nonzero;"/>
        <path d="M447.768,324.855C447.821,325.251 447.742,325.675 447.53,326.124C447.265,326.734 447.106,327.183 447.053,327.474C447.053,332.977 446.829,336.8 446.379,338.943C445.4,343.441 443.323,345.69 440.148,345.69C435.518,345.69 433.204,341.47 433.204,333.03C433.204,330.755 433.376,328.347 433.719,325.807C433.534,325.199 433.442,324.657 433.442,324.18C433.442,323.414 433.693,322.765 434.196,322.236C434.619,321.786 435.241,321.561 436.061,321.561C436.722,321.561 437.344,321.7 437.926,321.978C438.507,322.255 438.852,322.58 438.958,322.95C439.01,323.135 439.038,323.321 439.038,323.505C439.038,323.85 438.891,324.399 438.601,325.153C438.309,325.907 438.19,326.522 438.244,326.998C437.979,328.48 437.847,330.345 437.847,332.593C437.847,334.87 437.992,336.76 438.284,338.268C438.654,340.014 439.169,340.887 439.831,340.887C440.942,340.887 441.669,339.009 442.013,335.252C442.199,333.374 442.292,330.384 442.292,326.284C442.292,326.019 442.252,325.635 442.172,325.132C442.093,324.63 442.053,324.259 442.053,324.022C442.053,323.386 442.292,322.95 442.768,322.711C443.032,322.58 443.403,322.513 443.878,322.513C444.752,322.513 445.559,322.699 446.299,323.069C447.172,323.519 447.662,324.115 447.768,324.855Z" style="fill-rule:nonzero;"/>
        <path d="M465.944,333.506C465.944,336.549 465.56,339.022 464.793,340.927C463.787,343.415 462.186,344.658 459.991,344.658C458.35,344.658 456.921,343.798 455.705,342.079C455.731,342.29 455.81,342.594 455.943,342.991C456.075,343.388 456.141,343.679 456.141,343.864C456.141,344.102 456.075,344.287 455.943,344.419C455.599,344.842 454.911,345.054 453.879,345.054C452.239,345.054 451.26,344.698 450.943,343.983C450.836,343.745 450.784,343.52 450.784,343.308C450.784,343.044 450.889,342.707 451.101,342.296C451.313,341.886 451.418,341.537 451.418,341.245L451.418,318.624C451.418,318.281 451.333,317.864 451.161,317.374C450.989,316.885 450.903,316.495 450.903,316.204C450.903,315.913 450.956,315.608 451.062,315.29C451.379,314.338 452.199,313.862 453.522,313.862C455.135,313.862 456.22,314.457 456.776,315.648C456.909,315.913 456.975,316.177 456.975,316.442C456.975,316.786 456.802,317.289 456.459,317.95C456.115,318.611 455.943,319.154 455.943,319.577L455.943,324.696C457.081,322.95 458.191,322.077 459.277,322.077C461.208,322.077 462.835,323.333 464.158,325.847C465.348,328.149 465.944,330.703 465.944,333.506ZM460.705,333.506C460.705,331.839 460.559,330.345 460.268,329.022C459.898,327.409 459.409,326.601 458.8,326.601C458.271,326.601 457.742,327.474 457.212,329.22C456.683,330.861 456.419,332.29 456.419,333.506C456.419,335.121 456.657,336.721 457.133,338.308C457.635,340.028 458.191,340.887 458.8,340.887C460.096,340.887 460.745,339.393 460.745,336.403C460.745,336.06 460.745,335.57 460.745,334.935C460.718,334.274 460.705,333.797 460.705,333.506Z" style="fill-rule:nonzero;"/>
        <path d="M474.674,344.419C474.145,345.424 473.167,345.927 471.738,345.927C470.415,345.927 469.489,345.477 468.96,344.579C468.801,344.314 468.721,344.023 468.721,343.706C468.721,343.441 468.814,343.004 469,342.396C469.184,341.788 469.277,341.285 469.277,340.887L469.119,315.251C469.119,313.849 469.119,313.135 469.119,313.108C469.198,312.764 469.568,312.48 470.23,312.255C470.89,312.031 471.592,311.917 472.333,311.917C473.418,311.917 474.105,312.116 474.396,312.513C474.687,312.91 474.833,313.32 474.833,313.743C474.833,314.035 474.727,314.517 474.515,315.192C474.303,315.867 474.198,316.415 474.198,316.838L474.198,340.65C474.198,341.046 474.31,341.569 474.536,342.217C474.76,342.866 474.873,343.335 474.873,343.625C474.873,343.917 474.806,344.181 474.674,344.419Z" style="fill-rule:nonzero;"/>
        <path d="M484.476,324.14C484.476,324.511 484.271,325.086 483.861,325.867C483.451,326.648 483.246,327.29 483.246,327.791L483.246,339.459C483.246,339.989 483.391,340.736 483.682,341.702C483.973,342.667 484.119,343.335 484.119,343.706C484.119,344.234 483.907,344.631 483.484,344.896C482.823,345.319 482.108,345.531 481.341,345.531C480.335,345.531 479.621,345.187 479.198,344.498C478.642,343.653 478.365,341.125 478.365,336.919C478.365,335.914 478.384,334.346 478.424,332.216C478.464,330.087 478.484,328.533 478.484,327.553C478.484,327.183 478.444,326.701 478.365,326.105C478.286,325.509 478.246,325.08 478.246,324.815C478.246,323.942 478.563,323.188 479.198,322.553C479.462,322.289 479.953,322.157 480.667,322.157C481.38,322.157 482.095,322.269 482.809,322.494C483.524,322.718 483.98,322.977 484.178,323.267C484.377,323.559 484.476,323.85 484.476,324.14ZM483.96,314.457C484.04,314.537 484.08,314.669 484.08,314.854C484.08,315.092 484.001,315.502 483.841,316.084C483.656,316.799 483.537,317.289 483.484,317.553C483.537,317.315 483.564,317.897 483.564,319.299C483.564,319.855 483.398,320.218 483.068,320.39C482.737,320.563 482.32,320.648 481.817,320.648C481.103,320.648 480.376,320.503 479.634,320.211C478.735,319.841 478.286,319.352 478.286,318.744C478.286,318.559 478.365,318.3 478.524,317.969C478.682,317.639 478.775,317.368 478.801,317.156C478.854,316.971 478.854,316.442 478.801,315.569C478.748,314.908 478.88,314.457 479.198,314.219C479.621,313.902 480.376,313.743 481.46,313.743C482.651,313.743 483.484,313.981 483.96,314.457Z" style="fill-rule:nonzero;"/>
        <path d="M500.707,337.633C500.68,338.215 500.429,338.811 499.953,339.419C499.211,340.292 498.736,340.954 498.524,341.404C496.857,343.944 495.137,345.213 493.365,345.213C491.275,345.213 489.648,344.156 488.484,342.039C487.452,340.108 486.936,337.673 486.936,334.737C486.936,331.376 487.571,328.454 488.841,325.966C490.243,323.214 492.055,321.838 494.278,321.838C496.024,321.838 497.439,322.805 498.524,324.736C499.423,326.376 499.874,328.163 499.874,330.093C499.874,330.623 499.834,331.085 499.754,331.482C499.569,332.382 498.815,332.832 497.493,332.832C496.46,332.832 495.667,332.54 495.111,331.958C494.846,331.667 494.714,330.993 494.714,329.935C494.714,329.67 494.727,329.287 494.754,328.784C494.754,328.254 494.754,327.871 494.754,327.633C494.754,326.442 494.542,325.847 494.119,325.847C493.668,325.847 493.193,327.151 492.69,329.756C492.188,332.362 491.936,334.803 491.936,337.078C491.936,339.724 492.334,341.046 493.127,341.046C494.159,341.046 494.925,340.213 495.428,338.546C495.64,338.308 495.759,337.832 495.786,337.118C495.786,336.483 495.945,336.066 496.262,335.868C496.58,335.669 497.043,335.57 497.651,335.57C498.445,335.57 499.132,335.743 499.714,336.085C500.402,336.483 500.733,336.998 500.707,337.633Z" style="fill-rule:nonzero;"/>
        <path d="M519.875,325.411C519.795,325.993 519.478,326.522 518.922,326.998C518.102,327.739 517.626,328.188 517.494,328.347L508.762,340.173L514.715,339.221C515.006,339.168 515.403,339.029 515.906,338.804C516.408,338.58 516.819,338.467 517.136,338.467C517.877,338.467 518.511,338.804 519.042,339.479C519.57,340.154 519.835,340.874 519.835,341.642C519.835,342.303 519.656,342.826 519.299,343.209C518.942,343.593 518.486,343.785 517.93,343.785C517.797,343.785 517.414,343.745 516.779,343.665C516.276,343.613 515.853,343.613 515.509,343.665L508.127,344.817C507.81,344.87 507.334,345.054 506.699,345.372C506.169,345.663 505.693,345.795 505.27,345.769C504.292,345.715 503.431,345.378 502.691,344.757C501.95,344.135 501.58,343.402 501.58,342.554C501.58,342.396 501.592,342.237 501.62,342.079C501.725,341.443 501.99,340.941 502.413,340.57C503.074,339.989 503.445,339.644 503.524,339.539L512.414,327.236L508.127,327.791C507.916,327.818 507.631,327.898 507.274,328.03C506.918,328.163 506.632,328.228 506.421,328.228C506.183,328.228 505.931,328.163 505.668,328.03C504.159,327.342 503.405,326.429 503.405,325.291C503.405,324.657 503.656,324.035 504.159,323.426C504.477,323.03 504.926,322.831 505.508,322.831C505.693,322.831 506.104,322.884 506.739,322.99C507.268,323.043 507.705,323.056 508.048,323.03L514.239,322.315C514.556,322.289 514.993,322.176 515.548,321.978C516.104,321.78 516.541,321.68 516.858,321.68C517.652,321.68 518.379,322.104 519.042,322.95C519.702,323.797 519.98,324.617 519.875,325.411Z" style="fill-rule:nonzero;"/>
        <path d="M540.867,341.681C540.813,342.263 540.43,342.759 539.716,343.169C539.002,343.58 538.208,343.785 537.335,343.785C536.039,343.785 535.152,343.374 534.676,342.554C534.887,334.406 534.649,330.279 533.961,330.172C533.3,330.067 531.686,333.718 529.12,341.125C529.12,341.919 529.12,342.713 529.12,343.507C529.093,344.459 528.835,345.134 528.346,345.531C527.856,345.927 527.335,346.126 526.779,346.126C525.826,346.126 524.807,345.61 523.723,344.579C523.405,344.314 523.233,342.303 523.207,338.546C523.233,340.848 523.247,336.576 523.247,325.728C523.247,325.49 523.22,325.166 523.168,324.755C523.114,324.346 523.087,324.048 523.087,323.863C523.087,323.361 523.22,322.924 523.485,322.553C523.802,322.077 524.304,321.838 524.993,321.838C525.707,321.838 526.455,322.057 527.235,322.494C528.015,322.93 528.485,323.347 528.644,323.744C528.75,324.008 528.802,324.273 528.802,324.538C528.802,324.802 528.697,325.172 528.485,325.649C528.273,326.124 528.168,326.522 528.168,326.839L528.168,332.316C529.835,328.771 531.09,326.429 531.938,325.291C533.446,323.333 535.152,322.421 537.057,322.553C538.194,322.632 539.002,323.691 539.478,325.728C539.848,327.262 540.046,329.538 540.073,332.554C540.073,334.935 540.073,337.316 540.073,339.697C540.126,339.882 540.311,340.213 540.628,340.689C540.813,340.954 540.893,341.285 540.867,341.681Z" style="fill-rule:nonzero;"/>
        <path d="M557.812,340.054C557.599,341.06 556.885,342.131 555.668,343.269C555.483,343.56 554.756,343.944 553.486,344.419C552.031,344.975 550.774,345.213 549.716,345.134C547.732,345.001 546.17,343.864 545.033,341.721C544.002,339.737 543.485,337.303 543.485,334.419C543.485,331.297 544.067,328.559 545.232,326.205C546.528,323.612 548.26,322.157 550.43,321.838C550.853,321.786 551.263,321.759 551.661,321.759C554.809,321.759 556.542,323.691 556.859,327.553C557.018,329.327 556.317,331.258 554.756,333.347C553.062,335.649 550.893,337.263 548.248,338.189C548.539,339.248 548.763,339.935 548.922,340.252C549.293,340.915 549.795,341.245 550.43,341.245C551.039,341.245 551.686,341.006 552.375,340.531C552.957,340.133 553.353,339.75 553.565,339.379C553.67,339.327 553.777,339.029 553.883,338.487C553.988,337.945 554.266,337.554 554.716,337.316C554.875,337.237 555.06,337.197 555.272,337.197C555.907,337.197 556.522,337.508 557.117,338.129C557.712,338.751 557.944,339.393 557.812,340.054ZM551.582,326.085C550.523,326.085 549.663,326.839 549.002,328.347C548.128,330.358 547.771,332.342 547.93,334.3C549.173,333.903 550.324,332.977 551.382,331.522C552.441,330.067 552.97,328.771 552.97,327.633C552.97,326.601 552.507,326.085 551.582,326.085Z" style="fill-rule:nonzero;"/>
        <path d="M574.756,323.149C574.809,325.424 574.928,329.167 575.114,334.379C575.219,338.057 575.272,340.689 575.272,342.277C575.272,345.769 574.995,348.15 574.439,349.42C573.883,350.69 572.758,351.39 571.066,351.523C568.949,351.708 567.084,351.153 565.47,349.857C564.676,349.619 564.173,349.433 563.962,349.301C563.512,349.036 563.221,348.586 563.089,347.952C562.851,346.707 563.83,346.086 566.026,346.086C566.582,346.086 567.11,346.152 567.613,346.285C567.983,346.364 568.393,346.675 568.843,347.217C569.293,347.759 569.716,348.044 570.113,348.071C570.88,348.123 571.264,347.039 571.264,344.817C571.264,343.864 571.198,342.316 571.066,340.173C570.113,341.788 569.425,342.832 569.002,343.308C568.129,344.208 567.11,344.658 565.946,344.658C564.305,344.658 562.983,343.52 561.978,341.245C561.051,339.155 560.588,336.616 560.588,333.625C560.588,330.556 561.078,327.964 562.057,325.847C563.168,323.466 564.703,322.249 566.661,322.196C567.718,322.17 568.5,322.381 569.002,322.831C569.504,323.281 569.994,323.744 570.47,324.22C570.127,323.267 570.206,322.553 570.709,322.077C571,321.786 571.436,321.64 572.018,321.64C572.574,321.64 573.129,321.786 573.685,322.077C574.241,322.369 574.597,322.725 574.756,323.149ZM569.994,333.268C570.099,331.734 569.916,330.279 569.443,328.903C568.918,327.369 568.234,326.601 567.395,326.601C566.712,326.601 566.108,327.369 565.583,328.903C565.111,330.279 564.847,331.734 564.795,333.268C564.742,334.882 564.861,336.337 565.15,337.633C565.517,339.168 566.03,339.935 566.686,339.935C567.263,339.935 567.933,339.188 568.695,337.693C569.456,336.199 569.889,334.723 569.994,333.268Z" style="fill-rule:nonzero;"/>
        <path d="M591.185,323.744C592.958,325.543 593.844,328.573 593.844,332.832C593.844,336.139 593.222,338.957 591.979,341.285C590.577,343.904 588.646,345.213 586.185,345.213C583.751,345.213 581.873,344.037 580.55,341.681C579.385,339.618 578.803,336.998 578.803,333.824C578.803,331.02 579.253,328.506 580.153,326.284C581.105,323.903 582.322,322.5 583.804,322.077C584.571,321.866 585.365,321.759 586.185,321.759C588.222,321.759 589.889,322.421 591.185,323.744ZM586.662,325.649C585.789,325.569 585.035,326.389 584.399,328.109C583.843,329.67 583.566,331.31 583.566,333.03C583.566,335.517 583.671,337.276 583.883,338.308C584.253,340.161 585.021,341.179 586.185,341.364C586.925,341.47 587.614,340.451 588.249,338.308C588.857,336.245 589.162,334.036 589.162,331.681C589.162,327.818 588.328,325.807 586.662,325.649Z" style="fill-rule:nonzero;"/>
        <path d="M320.139,314.453C320.217,314.532 320.258,314.665 320.258,314.849C320.258,315.087 320.178,315.498 320.02,316.08C319.834,316.794 319.715,317.284 319.662,317.548C319.715,317.31 319.741,317.892 319.741,319.294C319.741,319.85 319.576,320.213 319.245,320.385C318.914,320.558 318.498,320.643 317.995,320.643C317.281,320.643 316.553,320.498 315.813,320.207C314.912,319.836 314.463,319.347 314.463,318.739C314.463,318.554 314.543,318.295 314.701,317.964C314.859,317.634 314.952,317.363 314.979,317.151C315.031,316.966 315.031,316.437 314.979,315.564C314.926,314.903 315.059,314.453 315.376,314.214C315.799,313.897 316.553,313.738 317.639,313.738C318.828,313.738 319.662,313.976 320.139,314.453Z" style="fill-rule:nonzero;"/>
    </g>
</svg>
