<svg width="228" height="71" viewBox="0 0 228 71" fill="none" xmlns="http://www.w3.org/2000/svg">
<path d="M83.4896 32.4H97.7896V36.18H88.2196V39.57H96.8596V43.32L88.2196 43.35V46.76H98.0496V50.54H83.4896V32.4Z" fill="#006B2D"/>
<path d="M118.44 50.54H112.78L108.02 43.5L105.74 46.04V50.54H101V32.4H105.74V40.27L112.54 32.4H118.03L111.3 39.88L118.44 50.54Z" fill="#006B2D"/>
<path d="M133.57 33.33C135.06 34.14 136.23 35.25 137.09 36.67C137.94 38.08 138.37 39.67 138.37 41.43C138.37 43.21 137.94 44.81 137.09 46.24C136.24 47.67 135.06 48.8 133.57 49.63C132.08 50.46 130.41 50.87 128.56 50.87C126.71 50.87 125.05 50.46 123.55 49.64C122.06 48.82 120.88 47.69 120.03 46.25C119.18 44.81 118.75 43.2 118.75 41.42C118.75 39.66 119.18 38.07 120.03 36.66C120.88 35.25 122.06 34.13 123.55 33.32C125.04 32.51 126.71 32.1 128.56 32.1C130.41 32.12 132.08 32.52 133.57 33.33ZM126.12 36.83C125.35 37.3 124.74 37.94 124.3 38.76C123.85 39.58 123.63 40.48 123.63 41.46C123.63 42.46 123.86 43.37 124.32 44.19C124.78 45.01 125.38 45.66 126.14 46.13C126.9 46.61 127.73 46.84 128.62 46.84C129.52 46.84 130.34 46.6 131.09 46.13C131.84 45.66 132.43 45.01 132.86 44.19C133.29 43.37 133.51 42.46 133.51 41.46C133.51 40.48 133.29 39.57 132.86 38.76C132.43 37.94 131.84 37.3 131.09 36.83C130.34 36.36 129.51 36.13 128.62 36.13C127.72 36.13 126.89 36.36 126.12 36.83Z" fill="#006B2D"/>
<path d="M150.18 36.46C149.08 36.1 148.16 35.92 147.42 35.92C146.83 35.92 146.37 36.03 146.04 36.24C145.7 36.46 145.53 36.77 145.53 37.18C145.53 37.58 145.68 37.91 145.97 38.18C146.26 38.45 146.63 38.66 147.06 38.83C147.49 38.99 148.13 39.21 148.98 39.46C150.24 39.82 151.28 40.18 152.1 40.55C152.92 40.91 153.62 41.47 154.21 42.22C154.8 42.97 155.09 43.95 155.09 45.16C155.09 46.37 154.77 47.4 154.13 48.25C153.49 49.1 152.62 49.75 151.5 50.18C150.39 50.61 149.15 50.83 147.79 50.83C146.29 50.83 144.79 50.57 143.3 50.04C141.81 49.51 140.52 48.79 139.43 47.88L141.27 44.18C142.18 44.99 143.27 45.65 144.52 46.17C145.77 46.69 146.88 46.95 147.85 46.95C148.56 46.95 149.11 46.82 149.52 46.56C149.93 46.3 150.13 45.92 150.13 45.42C150.13 45.01 149.98 44.66 149.68 44.39C149.38 44.11 149 43.89 148.54 43.73C148.08 43.57 147.44 43.37 146.61 43.15C145.37 42.81 144.34 42.46 143.53 42.1C142.72 41.75 142.02 41.21 141.45 40.49C140.87 39.78 140.58 38.82 140.58 37.63C140.58 36.51 140.88 35.53 141.47 34.68C142.07 33.83 142.91 33.18 144 32.73C145.1 32.27 146.37 32.05 147.82 32.05C149.13 32.05 150.42 32.23 151.7 32.6C152.98 32.97 154.1 33.47 155.06 34.09L153.28 37.87C152.31 37.29 151.28 36.83 150.18 36.46Z" fill="#006B2D"/>
<path d="M155.97 32.4H171.52V36.31H166.09V50.54H161.35V36.31H155.97V32.4Z" fill="#006B2D"/>
<path d="M184.38 50.54L181.74 45.52H178.23V50.54H173.49V32.4H181.64C184.04 32.4 185.9 32.96 187.22 34.07C188.54 35.18 189.2 36.75 189.2 38.77C189.2 40.13 188.92 41.31 188.37 42.3C187.82 43.29 187.02 44.06 185.96 44.62L189.74 50.55H184.38V50.54ZM178.22 41.74H181.66C182.63 41.74 183.37 41.5 183.9 41.02C184.42 40.54 184.69 39.84 184.69 38.92C184.69 38.04 184.43 37.36 183.9 36.89C183.37 36.41 182.63 36.18 181.66 36.18H178.22V41.74Z" fill="#006B2D"/>
<path d="M205.6 50.54L204.36 47.33H196.52L195.25 50.54H190.39L198.18 32.4H203.04L210.65 50.54H205.6ZM197.94 43.71H202.96L200.48 37.24L197.94 43.71Z" fill="#006B2D"/>
<path d="M211.61 32.4H227.18V35.51L217.61 46.74H227.34V50.54H211.27V47.46L220.84 36.21H211.61V32.4Z" fill="#006B2D"/>
<path d="M87.0696 3.38C86.6196 3.25 86.1996 3.19 85.7996 3.19C85.1696 3.19 84.6596 3.32 84.2696 3.57C83.8896 3.82 83.6996 4.16 83.6996 4.59C83.6996 4.97 83.7996 5.28 84.0196 5.52C84.2296 5.76 84.4896 5.95 84.7996 6.08C85.1096 6.22 85.5296 6.37 86.0696 6.54C86.6996 6.73 87.1996 6.91 87.5796 7.09C87.9596 7.27 88.2896 7.53 88.5596 7.88C88.8296 8.22 88.9596 8.67999 88.9596 9.24C88.9596 9.72999 88.8196 10.17 88.5396 10.55C88.2596 10.93 87.8696 11.22 87.3696 11.43C86.8696 11.64 86.2896 11.74 85.6396 11.74C84.9996 11.74 84.3696 11.61 83.7496 11.36C83.1396 11.1 82.6096 10.76 82.1696 10.34L82.5896 9.59C82.9996 9.99 83.4896 10.31 84.0296 10.54C84.5796 10.77 85.1196 10.88 85.6396 10.88C86.3496 10.88 86.9096 10.74 87.3196 10.45C87.7296 10.16 87.9396 9.77999 87.9396 9.29C87.9396 8.9 87.8296 8.58 87.6196 8.34C87.4096 8.09 87.1496 7.9 86.8396 7.77C86.5296 7.64 86.0996 7.48 85.5396 7.31C84.9096 7.12 84.4096 6.93 84.0296 6.76C83.6496 6.59 83.3296 6.33 83.0596 5.99C82.7996 5.65 82.6596 5.21 82.6596 4.66C82.6596 4.19 82.7896 3.78 83.0596 3.43C83.3296 3.08 83.6996 2.81 84.1696 2.62C84.6496 2.43 85.1996 2.34 85.8196 2.34C86.3196 2.34 86.8296 2.42 87.3396 2.57C87.8496 2.72 88.2896 2.92 88.6796 3.17L88.2796 3.95C87.9296 3.69 87.5196 3.51 87.0696 3.38Z" fill="black"/>
<path d="M91.7396 2.41H98.7596V3.24H95.7096V11.67H94.7996V3.24H91.7396V2.41Z" fill="black"/>
<path d="M107.94 2.97C108.68 3.39 109.26 3.95 109.69 4.67C110.12 5.38 110.34 6.17 110.34 7.02C110.34 7.88 110.12 8.67 109.69 9.39C109.26 10.11 108.68 10.69 107.94 11.11C107.2 11.53 106.4 11.75 105.51 11.75C104.62 11.75 103.82 11.54 103.08 11.11C102.34 10.69 101.76 10.11 101.33 9.39C100.9 8.67 100.68 7.88 100.68 7.02C100.68 6.17 100.9 5.38 101.33 4.67C101.76 3.96 102.35 3.39 103.08 2.97C103.82 2.55 104.62 2.34 105.51 2.34C106.4 2.34 107.21 2.55 107.94 2.97ZM103.57 3.68C102.97 4.02 102.49 4.49 102.14 5.08C101.79 5.67 101.61 6.32 101.61 7.02C101.61 7.73 101.79 8.38 102.14 8.97999C102.49 9.57999 102.97 10.05 103.57 10.4C104.17 10.75 104.82 10.92 105.53 10.92C106.23 10.92 106.87 10.75 107.47 10.4C108.07 10.05 108.54 9.57999 108.89 8.97999C109.24 8.38 109.42 7.73 109.42 7.02C109.42 6.32 109.24 5.67 108.89 5.08C108.54 4.49 108.06 4.02 107.47 3.68C106.87 3.34 106.23 3.17 105.53 3.17C104.82 3.16 104.17 3.33 103.57 3.68Z" fill="black"/>
<path d="M125.12 2.41H126.08L122.95 11.67H122L119.39 3.56L116.76 11.67H115.82L112.7 2.41H113.69L116.33 10.7L118.94 2.41H119.87L122.5 10.7L125.12 2.41Z" fill="black"/>
<path d="M135.76 11.66L134.66 9.2H129.53L128.45 11.66H127.47L131.64 2.42H132.59L136.76 11.66H135.76ZM129.89 8.38H134.31L132.09 3.38L129.89 8.38Z" fill="black"/>
<path d="M146.2 11.66L144.2 8.64C143.92 8.66 143.7 8.67 143.55 8.67H141.01V11.66H140.1V2.42H143.55C144.7 2.42 145.6 2.69 146.23 3.22C146.86 3.75 147.18 4.51 147.18 5.49C147.18 6.26 146.99 6.9 146.62 7.41C146.25 7.92 145.72 8.28 145.03 8.48L147.25 11.67H146.2V11.66ZM143.55 7.86C144.43 7.86 145.11 7.66 145.59 7.26C146.07 6.86 146.3 6.28 146.3 5.52C146.3 4.78 146.06 4.22 145.59 3.83C145.11 3.44 144.43 3.25 143.55 3.25H141.01V7.86H143.55Z" fill="black"/>
<path d="M150.81 2.42H158.09V3.12L151.82 10.85H158.15V11.67H150.63V10.95L156.92 3.24H150.81V2.42Z" fill="black"/>
<path d="M168.72 2.42L165.16 8.37V11.67H164.25V8.37L160.64 2.42H161.59L164.71 7.39L167.77 2.42H168.72Z" fill="black"/>
<path d="M175.97 3.38C175.52 3.25 175.1 3.19 174.7 3.19C174.07 3.19 173.56 3.32 173.17 3.57C172.79 3.82 172.6 4.16 172.6 4.59C172.6 4.97 172.7 5.28 172.92 5.52C173.13 5.76 173.39 5.95 173.7 6.08C174.01 6.22 174.43 6.37 174.97 6.54C175.6 6.73 176.1 6.91 176.48 7.09C176.86 7.27 177.19 7.53 177.46 7.88C177.73 8.22 177.86 8.67999 177.86 9.24C177.86 9.72999 177.72 10.17 177.44 10.55C177.16 10.93 176.77 11.22 176.27 11.43C175.77 11.64 175.19 11.74 174.54 11.74C173.9 11.74 173.27 11.61 172.65 11.36C172.04 11.1 171.51 10.76 171.07 10.34L171.49 9.59C171.9 9.99 172.39 10.31 172.93 10.54C173.48 10.77 174.02 10.88 174.54 10.88C175.25 10.88 175.81 10.74 176.22 10.45C176.63 10.16 176.84 9.77999 176.84 9.29C176.84 8.9 176.73 8.58 176.52 8.34C176.31 8.09 176.05 7.9 175.74 7.77C175.43 7.64 175 7.48 174.44 7.31C173.81 7.12 173.31 6.93 172.93 6.76C172.55 6.59 172.23 6.33 171.96 5.99C171.7 5.65 171.56 5.21 171.56 4.66C171.56 4.19 171.69 3.78 171.96 3.43C172.23 3.08 172.6 2.81 173.07 2.62C173.55 2.43 174.1 2.34 174.72 2.34C175.22 2.34 175.73 2.42 176.24 2.57C176.75 2.72 177.19 2.92 177.58 3.17L177.18 3.95C176.83 3.69 176.42 3.51 175.97 3.38Z" fill="black"/>
<path d="M181.26 2.42H188.55V3.12L182.28 10.85H188.6V11.67H181.09V10.95L187.37 3.24H181.26V2.42Z" fill="black"/>
<path d="M192.48 2.42H198.67V3.24H193.4V6.55H198.12V7.37H193.4V10.85H198.85V11.67H192.48V2.42Z" fill="black"/>
<path d="M209.62 2.42H210.52V11.67H209.55L203.82 3.84V11.67H202.91V2.42H203.88L209.62 10.25V2.42Z" fill="black"/>
<path d="M216.18 2.42H215.27V11.66H216.18V2.42Z" fill="black"/>
<path d="M220.92 2.42H227.11V3.24H221.83V6.55H226.55V7.37H221.83V10.85H227.28V11.67H220.92V2.42Z" fill="black"/>
<path d="M89.5396 16.77C90.2796 17.19 90.8596 17.75 91.2896 18.47C91.7196 19.18 91.9396 19.97 91.9396 20.82C91.9396 21.68 91.7196 22.47 91.2896 23.19C90.8596 23.91 90.2696 24.49 89.5396 24.91C88.7996 25.33 87.9996 25.55 87.1096 25.55C86.2196 25.55 85.4196 25.34 84.6796 24.91C83.9396 24.49 83.3596 23.91 82.9296 23.19C82.4996 22.47 82.2796 21.68 82.2796 20.82C82.2796 19.97 82.4996 19.18 82.9296 18.47C83.3596 17.76 83.9496 17.19 84.6796 16.77C85.4196 16.35 86.2196 16.14 87.1096 16.14C87.9996 16.14 88.7996 16.35 89.5396 16.77ZM85.1696 17.48C84.5696 17.82 84.0896 18.29 83.7396 18.88C83.3896 19.47 83.2096 20.12 83.2096 20.82C83.2096 21.53 83.3896 22.18 83.7396 22.78C84.0896 23.38 84.5696 23.85 85.1696 24.2C85.7696 24.55 86.4196 24.72 87.1296 24.72C87.8296 24.72 88.4696 24.55 89.0696 24.2C89.6696 23.85 90.1396 23.38 90.4896 22.78C90.8396 22.18 91.0196 21.53 91.0196 20.82C91.0196 20.12 90.8396 19.47 90.4896 18.88C90.1396 18.29 89.6596 17.82 89.0696 17.48C88.4696 17.14 87.8296 16.97 87.1296 16.97C86.4196 16.96 85.7596 17.13 85.1696 17.48Z" fill="black"/>
<path d="M99.1996 17.25C98.7096 17.05 98.2096 16.95 97.6896 16.95C96.9796 16.95 96.3196 17.12 95.7296 17.47C95.1396 17.81 94.6596 18.28 94.3196 18.88C93.9796 19.48 93.7996 20.12 93.7996 20.83C93.7996 21.54 93.9696 22.18 94.3196 22.78C94.6696 23.37 95.1396 23.84 95.7296 24.19C96.3296 24.54 96.9796 24.71 97.6896 24.71C98.1996 24.71 98.6996 24.61 99.1896 24.41C99.6696 24.21 100.11 23.94 100.48 23.58L101.04 24.18C100.58 24.6 100.06 24.94 99.4696 25.19C98.8796 25.44 98.2696 25.56 97.6596 25.56C96.7896 25.56 95.9896 25.35 95.2496 24.92C94.5196 24.5 93.9396 23.92 93.5096 23.2C93.0796 22.48 92.8696 21.69 92.8696 20.83C92.8696 19.98 93.0896 19.19 93.5196 18.48C93.9496 17.77 94.5396 17.2 95.2696 16.78C96.0096 16.36 96.8096 16.15 97.6796 16.15C98.3096 16.15 98.9096 16.27 99.4896 16.5C100.07 16.73 100.58 17.06 101.02 17.47L100.48 18.1C100.11 17.74 99.6796 17.46 99.1996 17.25Z" fill="black"/>
<path d="M103.03 16.22H103.94V20.45H109.72V16.22H110.64V25.47H109.72V21.27H103.94V25.47H103.03V16.22Z" fill="black"/>
<path d="M119.64 25.46L117.64 22.44C117.36 22.46 117.14 22.47 116.99 22.47H114.45V25.46H113.54V16.22H117C118.15 16.22 119.05 16.49 119.68 17.02C120.31 17.55 120.63 18.31 120.63 19.29C120.63 20.06 120.44 20.7 120.07 21.21C119.7 21.72 119.17 22.08 118.48 22.28L120.7 25.47H119.64V25.46ZM117 21.66C117.88 21.66 118.56 21.46 119.04 21.06C119.52 20.66 119.75 20.08 119.75 19.32C119.75 18.58 119.51 18.02 119.04 17.63C118.56 17.24 117.88 17.05 117 17.05H114.46V21.66H117Z" fill="black"/>
<path d="M129.46 16.77C130.2 17.19 130.78 17.75 131.21 18.47C131.64 19.18 131.86 19.97 131.86 20.82C131.86 21.68 131.64 22.47 131.21 23.19C130.78 23.91 130.19 24.49 129.46 24.91C128.72 25.33 127.92 25.55 127.03 25.55C126.14 25.55 125.34 25.34 124.6 24.91C123.86 24.49 123.28 23.91 122.85 23.19C122.42 22.47 122.2 21.68 122.2 20.82C122.2 19.97 122.42 19.18 122.85 18.47C123.28 17.76 123.87 17.19 124.6 16.77C125.34 16.35 126.14 16.14 127.03 16.14C127.92 16.14 128.72 16.35 129.46 16.77ZM125.09 17.48C124.49 17.82 124.01 18.29 123.66 18.88C123.31 19.47 123.13 20.12 123.13 20.82C123.13 21.53 123.31 22.18 123.66 22.78C124.01 23.38 124.49 23.85 125.09 24.2C125.69 24.55 126.34 24.72 127.05 24.72C127.75 24.72 128.39 24.55 128.99 24.2C129.59 23.85 130.06 23.38 130.41 22.78C130.76 22.18 130.94 21.53 130.94 20.82C130.94 20.12 130.76 19.47 130.41 18.88C130.06 18.29 129.58 17.82 128.99 17.48C128.39 17.14 127.75 16.97 127.05 16.97C126.34 16.96 125.69 17.13 125.09 17.48Z" fill="black"/>
<path d="M140.58 16.22H141.48V25.47H140.51L134.78 17.64V25.47H133.87V16.22H134.84L140.58 24.05V16.22Z" fill="black"/>
<path d="M151.09 16.22L147.53 22.17V25.47H146.62V22.17L143.01 16.22H143.96L147.08 21.19L150.14 16.22H151.09Z" fill="black"/>
<path d="M160.02 16.22H167.31V16.92L161.04 24.65H167.36V25.47H159.85V24.75L166.13 17.04H160.02V16.22Z" fill="black"/>
<path d="M180.47 16.21H181.43L178.3 25.47H177.35L174.74 17.36L172.11 25.47H171.17L168.05 16.21H169.04L171.67 24.5L174.29 16.21H175.22L177.85 24.5L180.47 16.21Z" fill="black"/>
<path d="M183.88 16.22H182.97V25.46H183.88V16.22Z" fill="black"/>
<path d="M186.79 16.22H192.98V17.04H187.7V20.35H192.42V21.17H187.7V24.65H193.15V25.47H186.79V16.22Z" fill="black"/>
<path d="M201.48 25.46L199.48 22.44C199.2 22.46 198.98 22.47 198.83 22.47H196.29V25.46H195.38V16.22H198.83C199.98 16.22 200.88 16.49 201.51 17.02C202.14 17.55 202.46 18.31 202.46 19.29C202.46 20.06 202.27 20.7 201.9 21.21C201.53 21.72 201 22.08 200.31 22.28L202.53 25.47H201.48V25.46ZM198.84 21.66C199.72 21.66 200.4 21.46 200.88 21.06C201.36 20.66 201.59 20.08 201.59 19.32C201.59 18.58 201.35 18.02 200.88 17.63C200.4 17.24 199.72 17.05 198.84 17.05H196.3V21.66H198.84Z" fill="black"/>
<path d="M204.26 16.22H211.54V16.92L205.28 24.65H211.6V25.47H204.09V24.75L210.37 17.04H204.26V16.22Z" fill="black"/>
<path d="M221.29 27.43L221.53 28.03C221.21 28.22 220.87 28.31 220.51 28.31C220.15 28.31 219.86 28.21 219.65 28.03C219.44 27.84 219.33 27.57 219.33 27.23C219.33 26.6 219.73 26.01 220.53 25.43L219.45 23.01H214.32L213.24 25.47H212.26L216.43 16.23H217.38L221.55 25.47C221.07 25.81 220.71 26.11 220.5 26.35C220.28 26.59 220.18 26.84 220.18 27.08C220.18 27.26 220.23 27.4 220.32 27.49C220.41 27.58 220.54 27.62 220.7 27.62C220.88 27.62 221.09 27.56 221.29 27.43ZM214.68 22.18H219.1L216.88 17.18L214.68 22.18Z" fill="black"/>
<path d="M220.89 16.21H227.92V17.04H224.86V25.47H223.95V17.04H220.89V16.21Z" fill="black"/>
<path d="M220.51 29.17C219.93 29.17 219.45 29 219.07 28.67C218.79 28.42 218.47 27.97 218.47 27.23C218.47 26.87 218.55 26.52 218.72 26.19C218.31 26.29 217.95 26.49 217.65 26.79C217.19 27.25 216.97 27.84 216.97 28.56C216.97 29.27 217.2 29.85 217.65 30.32C218.11 30.79 218.69 31.02 219.4 31.02C220.09 31.02 220.66 30.79 221.12 30.32C221.5 29.93 221.72 29.45 221.78 28.88C221.38 29.07 220.95 29.17 220.51 29.17Z" fill="#006B2D"/>
<path d="M91.5196 57.48H92.2696L89.8196 64.73H89.0696L87.0396 58.38L84.9796 64.73H84.2396L81.7996 57.48H82.5696L84.6296 63.97L86.6796 57.48H87.4096L89.4696 63.97L91.5196 57.48Z" fill="black"/>
<path d="M113.17 64.73L111.61 62.37C111.39 62.38 111.22 62.39 111.1 62.39H109.11V64.73H108.4V57.49H111.1C112 57.49 112.7 57.7 113.2 58.12C113.69 58.54 113.94 59.13 113.94 59.89C113.94 60.49 113.79 60.99 113.5 61.39C113.21 61.79 112.8 62.07 112.26 62.23L114 64.72H113.17V64.73ZM111.1 61.75C111.79 61.75 112.32 61.59 112.69 61.28C113.06 60.96 113.25 60.51 113.25 59.92C113.25 59.34 113.06 58.9 112.69 58.59C112.32 58.29 111.79 58.13 111.1 58.13H109.11V61.74H111.1V61.75Z" fill="black"/>
<path d="M135.79 57.92C136.37 58.25 136.82 58.69 137.16 59.25C137.5 59.81 137.67 60.42 137.67 61.09C137.67 61.76 137.5 62.38 137.16 62.94C136.82 63.51 136.36 63.95 135.79 64.29C135.21 64.62 134.58 64.79 133.89 64.79C133.2 64.79 132.57 64.62 131.99 64.29C131.41 63.96 130.96 63.51 130.62 62.94C130.28 62.37 130.11 61.76 130.11 61.09C130.11 60.42 130.28 59.81 130.62 59.25C130.96 58.69 131.42 58.25 131.99 57.92C132.56 57.59 133.2 57.43 133.89 57.43C134.58 57.43 135.21 57.59 135.79 57.92ZM132.37 58.48C131.9 58.75 131.53 59.12 131.25 59.58C130.97 60.04 130.83 60.55 130.83 61.1C130.83 61.65 130.97 62.16 131.25 62.63C131.53 63.1 131.9 63.47 132.37 63.74C132.84 64.01 133.35 64.15 133.9 64.15C134.44 64.15 134.95 64.01 135.42 63.74C135.89 63.47 136.26 63.1 136.53 62.63C136.8 62.16 136.94 61.65 136.94 61.1C136.94 60.55 136.8 60.04 136.53 59.58C136.26 59.12 135.88 58.75 135.42 58.48C134.95 58.21 134.45 58.08 133.9 58.08C133.35 58.07 132.84 58.21 132.37 58.48Z" fill="black"/>
<path d="M158.28 58.3C157.9 58.14 157.51 58.06 157.1 58.06C156.54 58.06 156.03 58.19 155.56 58.46C155.09 58.73 154.73 59.1 154.45 59.56C154.18 60.03 154.04 60.53 154.04 61.09C154.04 61.65 154.18 62.15 154.45 62.61C154.72 63.07 155.09 63.44 155.56 63.71C156.03 63.98 156.54 64.12 157.1 64.12C157.5 64.12 157.89 64.04 158.27 63.89C158.65 63.74 158.99 63.52 159.28 63.24L159.71 63.71C159.35 64.04 158.94 64.3 158.48 64.5C158.02 64.69 157.55 64.79 157.06 64.79C156.38 64.79 155.75 64.62 155.17 64.29C154.6 63.96 154.14 63.51 153.81 62.94C153.48 62.37 153.31 61.76 153.31 61.09C153.31 60.42 153.48 59.81 153.82 59.25C154.16 58.69 154.61 58.25 155.19 57.92C155.77 57.59 156.4 57.43 157.08 57.43C157.57 57.43 158.04 57.52 158.5 57.7C158.96 57.88 159.35 58.14 159.7 58.46L159.28 58.96C158.99 58.68 158.66 58.46 158.28 58.3Z" fill="black"/>
<path d="M177.15 64.08H180.34V64.73H176.44V61.23L175.35 61.82V61.34L176.44 60.75V57.48H177.15V60.37L178.43 59.68V60.15L177.15 60.84V64.08Z" fill="black"/>
<path d="M202.16 64.73L201.3 62.81H197.29L196.44 64.73H195.68L198.94 57.5H199.68L202.94 64.73H202.16ZM197.57 62.16H201.03L199.29 58.25L197.57 62.16Z" fill="black"/>
<path d="M227.24 57.48H228L225.55 64.73H224.8L222.76 58.38L220.7 64.73H219.97L217.53 57.48H218.3L220.36 63.97L222.41 57.48H223.14L225.2 63.97L227.24 57.48Z" fill="black"/>
<path fill-rule="evenodd" clip-rule="evenodd" d="M28.3196 59.43C27.7696 59.71 27.2496 59.98 26.7296 60.24C25.6596 60.78 24.7196 61.53 23.7396 62.21C23.6396 62.28 23.5596 62.4 23.5196 62.51C23.2496 63.35 23.0096 64.19 22.7296 65.03C22.6096 65.4 22.4096 65.75 22.2496 66.12C22.0796 66.52 21.9296 66.93 21.7496 67.33C21.6696 67.51 21.5296 67.67 21.3596 67.94C21.0696 66.97 20.8896 66.08 20.4496 65.28C20.3396 65.96 20.4296 66.62 20.5396 67.28C20.6596 67.99 20.7296 68.72 20.4296 69.43C20.2196 69.92 19.8696 70.15 19.3896 70.18C18.8896 70.21 18.3896 70.2 17.8796 70.18C17.6996 70.17 17.4996 70.09 17.3496 70C16.6696 69.57 16.2096 69.01 16.2896 68.12C16.3396 67.6 16.2896 67.08 16.3096 66.56C16.3196 66.16 16.3796 65.76 16.4096 65.36C16.4196 65.31 16.3996 65.25 16.3896 65.16C15.9096 65.41 15.4496 65.66 14.9696 65.88C14.4296 66.13 13.8996 66.14 13.4696 65.74C13.2196 64.93 13.5696 64.31 13.8696 63.66C14.1996 62.95 14.5096 62.23 14.8396 61.51C14.8896 61.39 14.9696 61.28 15.0496 61.16C15.3896 60.61 15.7196 60.06 16.0696 59.52C16.1896 59.33 16.3196 59.13 16.4596 58.95C16.7996 58.51 16.8996 57.99 16.9796 57.46C17.0696 56.8 17.1996 56.13 17.0796 55.36C16.6196 56.23 16.2196 57.05 15.7496 57.83C15.2796 58.6 14.7496 59.33 14.1996 60.14C14.1596 59.99 14.1096 59.92 14.1296 59.88C14.4296 59.26 14.7496 58.66 15.0496 58.04C15.2296 57.67 15.3596 57.27 15.5196 56.89C15.6396 56.59 15.7496 56.28 15.8896 55.99C16.3196 55.1 16.7896 54.22 17.1996 53.32C17.5996 52.44 17.9396 51.54 18.3296 50.66C18.7896 49.62 19.2596 48.59 19.7496 47.57C20.1396 46.76 20.5796 45.98 20.9696 45.18C21.4896 44.12 21.9696 43.04 22.4896 41.97C22.7796 41.37 23.1296 40.81 23.4396 40.22C23.6996 39.74 23.9296 39.24 24.1996 38.76C24.6196 38.03 25.0496 37.32 25.4796 36.6C26.0696 35.62 26.6396 34.63 27.2596 33.67C27.7696 32.87 28.3196 32.08 28.8696 31.31C29.2496 30.78 29.6896 30.3 30.0596 29.77C30.8496 28.64 31.6996 27.56 32.6996 26.61C32.9996 26.32 33.2496 25.97 33.5496 25.67C33.8796 25.34 34.2196 25.04 34.5796 24.75C35.1596 24.29 35.7296 23.81 36.3496 23.39C37.1796 22.82 37.9596 22.18 38.9196 21.84C39.1296 21.77 39.2996 21.6 39.5096 21.5C40.1996 21.17 40.9796 21.06 41.6696 20.77C42.4996 20.43 43.3296 20.49 44.1596 20.47C44.5396 20.46 44.9196 20.47 45.3096 20.39C44.9696 20.19 44.6296 20 44.2996 19.78C43.4196 19.18 42.6396 18.48 42.0696 17.58C41.5496 16.77 41.1196 15.9 40.9096 14.97C40.6096 13.68 40.4196 12.37 40.8096 11.05C40.9796 10.47 41.0296 9.84 41.2596 9.28C41.5496 8.58 41.9596 7.93 42.3196 7.26C42.3896 7.14 42.4596 7.01 42.5896 6.8C41.7596 7.15 41.2196 7.72 40.5996 8.28C40.3996 7.68 41.0096 7.43 40.9896 6.92C39.8496 7.88 39.1996 9.13 38.4696 10.35C38.4196 9.24 39.0496 8.35999 39.4696 7.39C39.1596 7.54 39.1496 7.54 38.6596 8.28C38.4296 8.63 38.2396 9 38.0296 9.37C37.8196 9.73 37.7896 10.17 37.3796 10.45C37.4196 10.16 37.4296 9.86 37.5096 9.59C37.8096 8.59 38.1196 7.58 38.6696 6.68C39.0496 6.04 39.5496 5.48 39.9796 4.87C40.4096 4.3 40.9996 3.87 41.6096 3.57C42.3896 3.19 43.0096 2.62 43.7496 2.21C43.7796 2.19 43.8196 2.17 43.8496 2.16C44.3596 2.02 44.8696 1.84 45.3896 1.75C45.8796 1.66 46.3796 1.63 46.8796 1.63C47.4696 1.63 48.0696 1.67 48.6596 1.75C48.9696 1.79 49.2796 1.95 49.5696 2.08C50.3196 2.43 51.0996 2.7 51.7296 3.31C52.2696 3.83 52.7896 4.36 53.2096 4.98C53.4296 5.31 53.5796 5.68 53.7396 6.04C53.9396 6.48 54.1596 6.9 54.5396 7.21C54.7096 7.34 54.8896 7.45 55.0396 7.59C55.4196 7.92 55.8996 8.07 56.3396 8.28C57.3596 8.76 58.3796 9.24 59.4296 9.64C60.3196 9.98 61.1896 10.35 62.0596 10.74C62.3396 10.86 62.6196 10.99 62.8896 11.12C63.6296 11.47 64.3596 11.81 65.0896 12.16C65.3296 12.28 65.5496 12.43 65.7696 12.56C66.5196 13.01 67.2796 13.45 68.0196 13.9C68.6796 14.31 69.3296 14.73 69.9896 15.14C70.2296 15.29 70.4596 15.46 70.7196 15.59C71.3396 15.91 71.8596 16.36 72.3696 16.83C72.5196 16.96 72.6696 17.08 72.8396 17.22C72.6496 17.42 72.4796 17.38 72.3196 17.34C71.7796 17.21 71.2496 17.07 70.7196 16.91C70.1496 16.75 69.5896 16.56 69.0196 16.4C68.4896 16.25 67.9496 16.13 67.4296 15.96C66.9096 15.79 66.4096 15.57 65.8996 15.37C65.5296 15.23 65.1596 15.1 64.7796 14.97C64.2196 14.77 63.6696 14.56 63.1196 14.34C62.6096 14.14 62.0896 13.97 61.5396 13.85C60.8396 13.7 60.1196 13.57 59.4596 13.25C58.7096 12.88 57.9396 12.54 57.1496 12.27C56.6496 12.1 56.1996 11.76 55.6296 11.79C55.5196 11.8 55.4196 11.71 55.3096 11.68C54.5596 11.42 53.8196 11.23 53.0096 11.44C52.6496 11.53 52.2496 11.53 51.8696 11.56C50.9196 11.64 49.9596 11.73 49.0096 11.81C48.8796 11.82 48.7196 11.84 48.6096 11.79C48.1396 11.56 47.6996 11.79 47.2496 11.84C46.9996 11.87 46.8796 12.2 46.9596 12.49C47.1496 13.21 47.4396 13.89 47.8696 14.5C48.2696 15.08 48.6696 15.67 49.0896 16.24C49.6796 17.04 50.3196 17.8 51.1096 18.42C51.9196 19.07 52.6996 19.76 53.5096 20.41C53.8496 20.68 54.2296 20.9 54.5796 21.17C55.8496 22.11 57.0596 23.12 58.0996 24.31C58.5696 24.84 58.9196 25.49 59.2596 26.12C59.5196 26.58 59.6996 27.09 59.8796 27.59C59.9796 27.87 60.0096 28.18 60.0496 28.48C60.1596 29.29 60.3496 30.09 60.3496 30.93C60.3496 31.57 60.4996 32.22 60.5396 32.86C60.5896 33.63 60.5896 34.4 60.4396 35.16C60.2996 35.83 60.2496 36.52 59.9796 37.17C59.8596 37.47 59.7296 37.76 59.5596 38.04C59.6796 37.21 59.6596 36.41 59.3196 35.63C59.3496 36.52 59.0696 37.37 58.9796 38.24C58.8996 38.94 58.6796 39.58 58.5696 40.26C58.5096 40.63 58.3896 41.01 58.2196 41.35C57.8996 41.96 57.8796 42.7 57.3696 43.22C57.3096 43.29 57.2496 43.39 57.2396 43.48C57.1896 44.16 56.8196 44.74 56.5996 45.36C56.3496 46.08 56.0196 46.77 55.7296 47.47C55.7196 47.5 55.6696 47.51 55.5696 47.56C55.7796 46.26 56.2796 45.04 56.0796 43.63C55.9596 43.83 55.8596 43.94 55.8096 44.07C55.4196 45.04 54.9996 46.01 54.4596 46.91C53.9996 47.69 53.5096 48.46 52.9996 49.21C52.6796 49.68 52.3096 50.11 51.9396 50.55C51.8496 50.66 51.6996 50.73 51.4896 50.88C51.5896 50.33 51.6696 49.89 51.7496 49.45C50.9496 50.41 50.1696 51.36 49.0196 52.12C49.1396 51.83 49.1796 51.63 49.2896 51.46C49.8096 50.68 50.1896 49.84 50.6196 49.01C50.9996 48.29 51.1596 47.5 51.5296 46.78C51.5996 46.64 51.5896 46.45 51.5696 46.26C50.4196 48.17 49.2296 50.02 47.6996 51.65C47.8796 50.81 48.3396 50.08 48.6096 49.29C48.8896 48.48 49.1796 47.67 49.3596 46.83C49.5396 46 49.8496 45.18 49.8396 44.31C48.8596 46.57 47.6996 48.72 46.1996 50.68C46.1896 50.69 46.1296 50.66 46.0696 50.63C46.2796 50.11 46.4996 49.58 46.7196 49.03C46.4896 48.97 46.3996 49.16 46.2996 49.26C45.4296 50.13 44.5896 51.03 43.6796 51.87C43.0596 52.45 42.3596 52.96 41.6796 53.47C41.4496 53.7 30.3496 59.45 28.3196 59.43Z" fill="#006B2D"/>
<path d="M6.4996 35.01C6.3496 37.51 9.5196 44.46 11.2596 46.32C12.3996 47.53 13.8996 50.42 14.7996 52.64C14.8496 52.53 14.9096 52.43 14.9496 52.32C15.1596 51.87 15.3396 51.41 15.5296 50.95C15.7096 50.52 15.8796 50.1 16.0696 49.68C16.5796 48.54 17.0496 47.5 17.5296 46.52C17.7396 46.08 17.9696 45.65 18.1896 45.21C18.3796 44.85 18.5696 44.48 18.7496 44.11C18.9896 43.62 19.2196 43.12 19.4596 42.62C19.7296 42.05 19.9996 41.47 20.2796 40.9C20.4796 40.49 20.7096 40.08 20.9396 39.68C21.0496 39.48 21.1696 39.28 21.2796 39.07C21.3796 38.89 21.4696 38.71 21.5596 38.53C21.7196 38.21 21.8896 37.88 22.0696 37.57C22.4196 36.95 22.7896 36.34 23.1496 35.73L23.8396 34.58C24.2796 33.84 24.7196 33.1 25.1796 32.37C25.7496 31.48 26.3496 30.62 26.8696 29.9C27.0796 29.61 27.2996 29.33 27.5296 29.05C27.7096 28.83 27.8896 28.61 28.0496 28.38C28.8696 27.21 29.6496 26.25 30.4396 25.42C27.2396 24.19 27.2596 18.11 25.2396 13.52C23.2396 8.96 20.8496 7.4 18.9396 5.96C17.0396 4.53 16.3296 3.89 15.4496 3.18C14.5696 2.47 12.3896 0.909996 12.0196 0.939996C11.6496 0.969996 11.6496 1.7 11.4496 1.82C11.2496 1.93 10.5696 1.03 10.2296 0.739996C9.8996 0.449996 9.2696 -3.93391e-06 9.0796 0.449996C8.8796 0.899996 10.4396 4.42 10.2196 4.85C9.9796 5.28 9.6996 5.28 8.1096 5.73C6.5196 6.18 4.1996 8.74 3.5696 9.56C2.9496 10.38 2.3796 13.02 2.0396 13.59C1.6996 14.16 0.929598 14.98 0.619598 15.29C0.309598 15.6 0.0495982 16.17 0.0195982 16.77C-0.0104018 17.37 0.299598 17.79 0.559598 17.99C0.819598 18.19 0.589598 18.7 0.839598 19.15C1.0996 19.61 1.4596 19.86 1.6896 20.03C1.9196 20.2 1.5496 20.6 2.3396 21.5C3.1296 22.41 6.6696 22.57 7.6196 23.55C8.5696 24.53 8.3796 26.95 8.3396 28.28C8.3096 29.6 6.6496 32.51 6.4996 35.01Z" fill="#010203"/>
</svg>
