<?xml version="1.0" encoding="UTF-8"?>
<svg xmlns="http://www.w3.org/2000/svg" id="Layer_1" data-name="Layer 1" viewBox="0 0 24 24">
  <path d="m12,0C5.383,0,0,5.383,0,12c0,.208.021.411.031.617l.982-.336c-.003-.094-.014-.186-.014-.281,0-1.412.277-2.758.764-4h4.913c-.262.81-.469,1.657-.577,2.541l1.068-.365c.127-.754.33-1.479.575-2.176h8.528c.438,1.246.73,2.593.73,4s-.292,2.753-.731,4h-2.16l-.342,1h2.111c-1.546,3.572-4.149,6.069-4.215,6.131h-.005l-.276.838c.206.011.409.031.618.031,6.617,0,12-5.383,12-12S18.617,0,12,0Zm9.786,7h-4.814c-1.067-2.669-2.712-4.781-3.732-5.925,3.734.421,6.901,2.719,8.546,5.925Zm-19.571,0C3.859,3.793,7.027,1.495,10.761,1.075c-1.018,1.145-2.66,3.26-3.725,5.925H2.214Zm5.92,0c1.225-2.835,3.106-4.988,3.866-5.788.763.797,2.65,2.948,3.879,5.788h-7.745Zm9.197,1h4.905c.487,1.242.764,2.588.764,4s-.277,2.758-.764,4h-4.905c.403-1.248.669-2.589.669-4s-.265-2.752-.669-4Zm-4.091,14.925c1.019-1.144,2.664-3.256,3.732-5.925h4.814c-1.645,3.206-4.812,5.504-8.546,5.925ZM.021,14.734l4.972,1.872L.036,21.563l2.4,2.4,4.957-4.957,1.872,4.972,4.808-14.052L.021,14.734Zm9.199,6.287l-1.438-3.817-5.346,5.346-.986-.986,5.346-5.346-3.817-1.438,9.487-3.245-3.245,9.487Z"/>
</svg>
